<?xml version="1.0" encoding="iso-8859-1"?>
<!-- Generator: Adobe Illustrator 16.0.0, SVG Export Plug-In . SVG Version: 6.00 Build 0)  -->
<!DOCTYPE svg PUBLIC "-//W3C//DTD SVG 1.1//EN" "http://www.w3.org/Graphics/SVG/1.1/DTD/svg11.dtd">
<svg version="1.1" id="Capa_1" xmlns="http://www.w3.org/2000/svg" xmlns:xlink="http://www.w3.org/1999/xlink" x="0px" y="0px"
	 width="31.568px" height="31.568px" viewBox="0 0 31.568 31.568" style="enable-background:new 0 0 31.568 31.568;"
	 xml:space="preserve">
<g>
	<g>
		<path d="M1.889,31.568h8.282V0H1.889V31.568z M4.021,2.958h4.016V9.65H4.021V2.958z M4.021,11.964h4.016v2.776H4.021V11.964z
			 M6.029,24.596c1.11,0,2.009,0.897,2.009,2.008c0,1.107-0.898,2.008-2.009,2.008c-1.108,0-2.007-0.9-2.007-2.008
			C4.021,25.494,4.92,24.596,6.029,24.596z"/>
		<path d="M11.643,31.568h8.282V0h-8.282V31.568z M13.777,2.958h4.016V9.65h-4.016V2.958z M13.777,11.964h4.016v2.776h-4.016V11.964
			z M15.784,24.596c1.11,0,2.009,0.897,2.009,2.008c0,1.107-0.898,2.008-2.009,2.008c-1.108,0-2.007-0.9-2.007-2.008
			C13.777,25.494,14.676,24.596,15.784,24.596z"/>
		<path d="M21.397,0v31.568h8.282V0H21.397z M25.539,28.611c-1.108,0-2.008-0.9-2.008-2.008c0-1.11,0.898-2.008,2.008-2.008
			c1.11,0,2.009,0.897,2.009,2.008C27.548,27.711,26.648,28.611,25.539,28.611z M27.548,14.74h-4.017v-2.776h4.017V14.74z
			 M27.548,9.651h-4.017V2.958h4.017V9.651z"/>
	</g>
</g>
<g>
</g>
<g>
</g>
<g>
</g>
<g>
</g>
<g>
</g>
<g>
</g>
<g>
</g>
<g>
</g>
<g>
</g>
<g>
</g>
<g>
</g>
<g>
</g>
<g>
</g>
<g>
</g>
<g>
</g>
</svg>
