<?xml version="1.0" encoding="iso-8859-1"?>
<!-- Generator: Adobe Illustrator 18.0.0, SVG Export Plug-In . SVG Version: 6.00 Build 0)  -->
<!DOCTYPE svg PUBLIC "-//W3C//DTD SVG 1.1//EN" "http://www.w3.org/Graphics/SVG/1.1/DTD/svg11.dtd">
<svg version="1.1" id="Capa_1" xmlns="http://www.w3.org/2000/svg" xmlns:xlink="http://www.w3.org/1999/xlink" x="0px" y="0px"
	 viewBox="0 0 60 60" style="enable-background:new 0 0 60 60;" xml:space="preserve">
<g>
	<path d="M25.62,58h-1.972c-0.553,0-1,0.448-1,1s0.447,1,1,1h1.972c0.553,0,1-0.448,1-1S26.173,58,25.62,58z"/>
	<path d="M37.448,58h-1.972c-0.553,0-1,0.448-1,1s0.447,1,1,1h1.972c0.553,0,1-0.448,1-1S38.001,58,37.448,58z"/>
	<path d="M43.362,58h-1.972c-0.553,0-1,0.448-1,1s0.447,1,1,1h1.972c0.553,0,1-0.448,1-1S43.915,58,43.362,58z"/>
	<path d="M31.534,58h-1.972c-0.553,0-1,0.448-1,1s0.447,1,1,1h1.972c0.553,0,1-0.448,1-1S32.087,58,31.534,58z"/>
	<path d="M13,53.245c0.553,0,1-0.448,1-1v-1.972c0-0.552-0.447-1-1-1s-1,0.448-1,1v1.972C12,52.797,12.447,53.245,13,53.245z"/>
	<path d="M49.276,58h-1.972c-0.553,0-1,0.448-1,1s0.447,1,1,1h1.972c0.553,0,1-0.448,1-1S49.829,58,49.276,58z"/>
	<path d="M14.096,55.919c-0.142-0.534-0.689-0.849-1.224-0.71c-0.533,0.142-0.852,0.689-0.71,1.223
		c0.213,0.802,0.636,1.541,1.224,2.137c0.195,0.198,0.454,0.298,0.712,0.298c0.254,0,0.508-0.096,0.702-0.288
		c0.394-0.388,0.397-1.021,0.01-1.414C14.466,56.816,14.219,56.385,14.096,55.919z"/>
	<path d="M19.706,58h-1.972c-0.553,0-1,0.448-1,1s0.447,1,1,1h1.972c0.553,0,1-0.448,1-1S20.259,58,19.706,58z"/>
	<path d="M59,30.562c-0.553,0-1,0.448-1,1v1.972c0,0.552,0.447,1,1,1s1-0.448,1-1v-1.972C60,31.009,59.553,30.562,59,30.562z"/>
	<path d="M59,42.39c-0.553,0-1,0.448-1,1v1.971c0,0.552,0.447,1,1,1s1-0.448,1-1V43.39C60,42.838,59.553,42.39,59,42.39z"/>
	<path d="M59,36.476c-0.553,0-1,0.448-1,1v1.971c0,0.552,0.447,1,1,1s1-0.448,1-1v-1.971C60,36.924,59.553,36.476,59,36.476z"/>
	<path d="M59,24.647c-0.553,0-1,0.448-1,1v1.972c0,0.552,0.447,1,1,1s1-0.448,1-1v-1.972C60,25.095,59.553,24.647,59,24.647z"/>
	<path d="M59,18.733c-0.553,0-1,0.448-1,1v1.972c0,0.552,0.447,1,1,1s1-0.448,1-1v-1.972C60,19.181,59.553,18.733,59,18.733z"/>
	<path d="M54.244,14c0.553,0,1-0.448,1-1s-0.447-1-1-1h-1.972c-0.553,0-1,0.448-1,1s0.447,1,1,1H54.244z"/>
	<path d="M55.19,58h-1.972c-0.553,0-1,0.448-1,1s0.447,1,1,1l2.001,0l0.015-1v1c0.553,0,0.978-0.447,0.978-1
		C56.212,58.447,55.743,58,55.19,58z"/>
	<path d="M59,48.304c-0.553,0-1,0.448-1,1v1.971c0,0.552,0.447,1,1,1s1-0.448,1-1v-1.971C60,48.752,59.553,48.304,59,48.304z"/>
	<path d="M58.864,16.803c0.088,0,0.177-0.012,0.265-0.036c0.533-0.146,0.847-0.696,0.701-1.228c-0.22-0.801-0.646-1.537-1.236-2.128
		c-0.391-0.392-1.023-0.391-1.414-0.001c-0.392,0.39-0.392,1.023-0.002,1.415c0.345,0.346,0.595,0.775,0.723,1.242
		C58.022,16.511,58.425,16.803,58.864,16.803z"/>
	<path d="M59.007,54.218c-0.002,0-0.005,0-0.007,0c-0.549,0-0.996,0.443-1,0.993c-0.004,0.488-0.134,0.967-0.376,1.385
		c-0.278,0.478-0.115,1.09,0.362,1.367c0.158,0.092,0.33,0.135,0.501,0.135c0.345,0,0.68-0.178,0.866-0.498
		c0.417-0.719,0.641-1.54,0.646-2.375C60.004,54.673,59.56,54.222,59.007,54.218z"/>
</g>
<path d="M48.329,12H48V4.81C48,2.158,45.843,0,43.19,0H4.81C2.157,0,0,2.158,0,4.81v38.38C0,45.842,2.157,48,4.81,48H12h1h1v-1.669
	v-1.972v-3.943v-1.971v-3.943v-1.971v-3.943v-1.971v-3.943v-1.971V14h2.81h1.949h3.942h1.972h3.943h1.971h3.943h1.971h3.943h1.971
	h3.943H48h0.329c0.553,0,1-0.448,1-1S48.882,12,48.329,12z M5,42c-0.552,0-1-0.448-1-1c0-0.552,0.448-1,1-1s1,0.448,1,1
	C6,41.552,5.552,42,5,42z M5,36c-0.552,0-1-0.448-1-1c0-0.552,0.448-1,1-1s1,0.448,1,1C6,35.552,5.552,36,5,36z M5,30
	c-0.552,0-1-0.448-1-1c0-0.552,0.448-1,1-1s1,0.448,1,1C6,29.552,5.552,30,5,30z M5,24c-0.552,0-1-0.448-1-1c0-0.552,0.448-1,1-1
	s1,0.448,1,1C6,23.552,5.552,24,5,24z M5,18c-0.552,0-1-0.448-1-1c0-0.552,0.448-1,1-1s1,0.448,1,1C6,17.552,5.552,18,5,18z M5,12
	c-0.552,0-1-0.448-1-1c0-0.552,0.448-1,1-1s1,0.448,1,1C6,11.552,5.552,12,5,12z M5,6C4.448,6,4,5.552,4,5c0-0.552,0.448-1,1-1
	s1,0.448,1,1C6,5.552,5.552,6,5,6z M8,45c-0.552,0-1-0.448-1-1c0-0.552,0.448-1,1-1s1,0.448,1,1C9,44.552,8.552,45,8,45z M8,39
	c-0.552,0-1-0.448-1-1c0-0.552,0.448-1,1-1s1,0.448,1,1C9,38.552,8.552,39,8,39z M8,33c-0.552,0-1-0.448-1-1c0-0.552,0.448-1,1-1
	s1,0.448,1,1C9,32.552,8.552,33,8,33z M8,27c-0.552,0-1-0.448-1-1c0-0.552,0.448-1,1-1s1,0.448,1,1C9,26.552,8.552,27,8,27z M8,21
	c-0.552,0-1-0.448-1-1c0-0.552,0.448-1,1-1s1,0.448,1,1C9,20.552,8.552,21,8,21z M8,15c-0.552,0-1-0.448-1-1c0-0.552,0.448-1,1-1
	s1,0.448,1,1C9,14.552,8.552,15,8,15z M8,9C7.448,9,7,8.552,7,8c0-0.552,0.448-1,1-1s1,0.448,1,1C9,8.552,8.552,9,8,9z M11,12
	c-0.552,0-1-0.448-1-1c0-0.552,0.448-1,1-1s1,0.448,1,1C12,11.552,11.552,12,11,12z M11,6c-0.552,0-1-0.448-1-1c0-0.552,0.448-1,1-1
	s1,0.448,1,1C12,5.552,11.552,6,11,6z M14,9c-0.552,0-1-0.448-1-1c0-0.552,0.448-1,1-1s1,0.448,1,1C15,8.552,14.552,9,14,9z M17,6
	c-0.552,0-1-0.448-1-1c0-0.552,0.448-1,1-1s1,0.448,1,1C18,5.552,17.552,6,17,6z M20,9c-0.552,0-1-0.448-1-1c0-0.552,0.448-1,1-1
	s1,0.448,1,1C21,8.552,20.552,9,20,9z M23,6c-0.552,0-1-0.448-1-1c0-0.552,0.448-1,1-1s1,0.448,1,1C24,5.552,23.552,6,23,6z M26,9
	c-0.552,0-1-0.448-1-1c0-0.552,0.448-1,1-1s1,0.448,1,1C27,8.552,26.552,9,26,9z M29,6c-0.552,0-1-0.448-1-1c0-0.552,0.448-1,1-1
	s1,0.448,1,1C30,5.552,29.552,6,29,6z M32,9c-0.552,0-1-0.448-1-1c0-0.552,0.448-1,1-1s1,0.448,1,1C33,8.552,32.552,9,32,9z M35,6
	c-0.552,0-1-0.448-1-1c0-0.552,0.448-1,1-1s1,0.448,1,1C36,5.552,35.552,6,35,6z M38,9c-0.552,0-1-0.448-1-1c0-0.552,0.448-1,1-1
	s1,0.448,1,1C39,8.552,38.552,9,38,9z M41,6c-0.552,0-1-0.448-1-1c0-0.552,0.448-1,1-1s1,0.448,1,1C42,5.552,41.552,6,41,6z M44,9
	c-0.552,0-1-0.448-1-1c0-0.552,0.448-1,1-1s1,0.448,1,1C45,8.552,44.552,9,44,9z"/>
<g>
</g>
<g>
</g>
<g>
</g>
<g>
</g>
<g>
</g>
<g>
</g>
<g>
</g>
<g>
</g>
<g>
</g>
<g>
</g>
<g>
</g>
<g>
</g>
<g>
</g>
<g>
</g>
<g>
</g>
</svg>
