<?xml version="1.0" encoding="iso-8859-1"?>
<!-- Generator: Adobe Illustrator 18.1.1, SVG Export Plug-In . SVG Version: 6.00 Build 0)  -->
<svg version="1.1" id="Capa_1" xmlns="http://www.w3.org/2000/svg" xmlns:xlink="http://www.w3.org/1999/xlink" x="0px" y="0px"
	 viewBox="0 0 90.001 90.001" style="enable-background:new 0 0 90.001 90.001;" xml:space="preserve">
<g>
	<g>
		<path style="fill:#030104;" d="M34.002,56.353l-20.004-8.002v6.77l20.004,8.002V56.353z M34.002,35.583l-20.004-8.001v6.77
			l20.004,8.001V35.583z M87.803,0.86c-1.373-0.93-3.119-1.118-4.66-0.502L45,15.616L6.855,0.358C5.314-0.258,3.57-0.069,2.195,0.86
			C0.822,1.79,0,3.341,0,5.001v64c0,2.045,1.244,3.883,3.141,4.643l39.916,15.965c0,0,0.818,0.264,0.973,0.295
			c0.32,0.062,0.644,0.097,0.97,0.097c0.324,0,0.648-0.035,0.971-0.098c0.152-0.031,0.975-0.297,0.975-0.297l39.912-15.963
			C88.756,72.884,90,71.046,90,69.001v-64C90,3.341,89.176,1.79,87.803,0.86z M40,79.771L8,66.972v-56.04l32,12.802V79.771z
			 M82,66.972L50,79.771V23.733l32-12.802V66.972z M76.002,48.351l-20.004,8.002v6.77l20.004-8.002V48.351z M76.002,27.582
			l-20.004,8.001v6.77l20.004-8.001V27.582z"/>
	</g>
</g>
<g>
</g>
<g>
</g>
<g>
</g>
<g>
</g>
<g>
</g>
<g>
</g>
<g>
</g>
<g>
</g>
<g>
</g>
<g>
</g>
<g>
</g>
<g>
</g>
<g>
</g>
<g>
</g>
<g>
</g>
</svg>
