<?xml version="1.0" encoding="iso-8859-1"?>
<!-- Generator: Adobe Illustrator 18.1.1, SVG Export Plug-In . SVG Version: 6.00 Build 0)  -->
<svg version="1.1" id="Capa_1" xmlns="http://www.w3.org/2000/svg" xmlns:xlink="http://www.w3.org/1999/xlink" x="0px" y="0px"
	 viewBox="0 0 38.763 38.763" style="enable-background:new 0 0 38.763 38.763;" xml:space="preserve">
<g>
	<path style="fill:#030104;" d="M35.469,34.514l-4.422-4.854c-0.016-0.017-0.016-0.067,0-0.084l4.422-4.858
		c0.939-1.035,0.863-2.645-0.171-3.587c-0.45-0.409-1.054-0.636-1.698-0.636c-0.406,0-0.795,0.099-1.145,0.266V1.565
		C32.455,0.703,31.753,0,30.889,0H4.203C3.339,0,2.637,0.703,2.637,1.565v35.633c0,0.862,0.702,1.565,1.566,1.565h17.27
		l-0.049-0.037c0.043,0.002,0.084,0.01,0.128,0.01c0.733,0,1.421-0.293,1.89-0.803l4.135-4.545l4.135,4.543
		c0.48,0.528,1.165,0.832,1.879,0.832c0.633,0,1.239-0.236,1.711-0.664C36.332,37.159,36.408,35.551,35.469,34.514z M19.225,37.198
		H4.203V1.565h26.686V22.2l-3.313,3.642l-4.136-4.544c-0.465-0.512-1.152-0.806-1.888-0.806c-0.644,0-1.248,0.227-1.7,0.637
		c-1.035,0.941-1.111,2.553-0.168,3.588l4.418,4.854c0.017,0.019,0.018,0.07,0,0.088l-4.42,4.855
		C18.999,35.266,18.859,36.316,19.225,37.198z M34.438,37.154c-0.474,0.428-1.354,0.388-1.779-0.084l-4.178-4.592
		c-0.236-0.261-0.56-0.405-0.904-0.405c-0.348,0-0.666,0.145-0.905,0.405l-4.177,4.594c-0.229,0.248-0.569,0.393-0.938,0.393
		c-0.324,0-0.623-0.109-0.843-0.311c-0.513-0.467-0.55-1.264-0.084-1.777l4.42-4.857c0.46-0.506,0.461-1.302,0-1.81l-4.42-4.854
		c-0.466-0.514-0.429-1.312,0.084-1.777c0.472-0.43,1.353-0.387,1.779,0.083l4.177,4.591c0.456,0.504,1.352,0.504,1.809,0.001
		l4.178-4.591c0.429-0.471,1.31-0.514,1.779-0.085c0.248,0.228,0.396,0.534,0.409,0.872c0.015,0.336-0.101,0.656-0.325,0.906
		l-4.42,4.857c-0.459,0.505-0.461,1.301,0,1.809l4.42,4.854C34.986,35.891,34.949,36.688,34.438,37.154z"/>
</g>
<g>
</g>
<g>
</g>
<g>
</g>
<g>
</g>
<g>
</g>
<g>
</g>
<g>
</g>
<g>
</g>
<g>
</g>
<g>
</g>
<g>
</g>
<g>
</g>
<g>
</g>
<g>
</g>
<g>
</g>
</svg>
