<?xml version="1.0" encoding="iso-8859-1"?>
<!-- Generator: Adobe Illustrator 16.0.0, SVG Export Plug-In . SVG Version: 6.00 Build 0)  -->
<!DOCTYPE svg PUBLIC "-//W3C//DTD SVG 1.1//EN" "http://www.w3.org/Graphics/SVG/1.1/DTD/svg11.dtd">
<svg version="1.1" id="Capa_1" xmlns="http://www.w3.org/2000/svg" xmlns:xlink="http://www.w3.org/1999/xlink" x="0px" y="0px"
	 width="552.698px" height="552.699px" viewBox="0 0 552.698 552.699" style="enable-background:new 0 0 552.698 552.699;"
	 xml:space="preserve">
<g>
	<path d="M552.613,274.933c-1.12-37.699-16.162-68.723-45.299-92.6c-27.031-22.138-58.894-34.033-92.445-41.822
		c-45.452-10.557-91.693-13.369-138.188-13.243c-13.868,0.371-27.731,0.324-41.616,0.954c-26.982,1.223-53.765,3.729-80.278,8.784
		c-35.547,6.772-69.693,17.31-99.827,38.277c-28.516,19.847-46.825,46.342-52.78,80.916c-4.907,28.467-1.3,56.129,8.478,83.03
		c13.042,35.88,37.853,60.321,73.469,73.86c24.259,9.223,49.492,11.999,75.301,12.279c26.327,0.289,49.452-7.574,69.955-23.97
		c10.382-8.299,19.499-18.076,30.348-25.8c11.35-8.093,20.853-8.247,32.474-0.564c7.98,5.273,14.794,11.957,21.855,18.327
		c17.254,15.569,36.31,27.881,59.953,30.621c30.537,3.533,60.574,0.662,89.795-9.139c34.746-11.648,60.219-33.766,75.187-67.435
		C549.244,324.359,553.355,300.077,552.613,274.933z M149.238,327.869c-39.026,0-70.648-37.309-70.648-37.309
		s31.622-37.311,70.648-37.311c39.017,0,70.641,37.311,70.641,37.311S188.255,327.869,149.238,327.869z M415.952,327.869
		c-39.017,0-70.646-37.309-70.646-37.309s31.629-37.311,70.646-37.311s70.65,37.311,70.65,37.311S454.969,327.869,415.952,327.869z"
		/>
</g>
<g>
</g>
<g>
</g>
<g>
</g>
<g>
</g>
<g>
</g>
<g>
</g>
<g>
</g>
<g>
</g>
<g>
</g>
<g>
</g>
<g>
</g>
<g>
</g>
<g>
</g>
<g>
</g>
<g>
</g>
</svg>
