<?xml version="1.0" encoding="utf-8"?>
<!-- Generator: Adobe Illustrator 20.0.0, SVG Export Plug-In . SVG Version: 6.00 Build 0)  -->
<svg version="1.1" id="Calque_1" xmlns="http://www.w3.org/2000/svg" xmlns:xlink="http://www.w3.org/1999/xlink" x="0px" y="0px"
	 viewBox="0 0 512 254.3" style="enable-background:new 0 0 512 254.3;" xml:space="preserve">
<style type="text/css">
	.st0{fill:#000100;}
</style>
<g>
	<path class="st0" d="M56,139.2c-1.6-76.3,62.2-95.9,85.6-96.5c34.2-0.9,46.7,10.9,46.7,10.9L200.8,10c0,0-19.6-10.9-60.1-10
		C84.3,1.6-0.3,41.5,0,147c0.6,103,98,101.2,98,101.2h34.2l21.8-45.8C133.8,204.2,57.6,215.4,56,139.2z"/>
	<path class="st0" d="M454.4,45.8c21.8,0,43.6,10.9,43.6,10.9l14-38.9c0,0-29.6-12.4-54.5-12.4c-54.5,0-93.4,21.8-93.4,73.1
		c0,62.2,84,68.5,82.5,104.3c-1.6,35.8-37.3,28-37.3,28l-51.4-9.3l6.2,46.7c0,0,26.5,6.2,46.7,6.2c37.3,0,88.7-14,87.1-79.4
		c-1.6-65.4-80.3-66.9-82.5-98C414,53.6,432.6,45.8,454.4,45.8z"/>
	<path class="st0" d="M378.5,185.6c4.7,5,7.2,8.1,7.2,8.1C384.1,190.9,381.6,188,378.5,185.6z"/>
	<path class="st0" d="M378.5,185.6c-7.2-7.2-19.3-17.4-36.7-24.9L324.9,10.3H258L142.9,250h51.4l25.5-57.6
		c6.2,0.9,12.1,3.1,16.5,7.8c0,0,20.9-29.9,57.3-36.4l8.1,84.7h49.8l-8.7-79.7C355.1,172.2,369.1,177.8,378.5,185.6z M291,150.1
		c-23.3,0-43,5.9-58.2,13.4l50.4-113l9.3,99.6C291.9,150.4,291.3,150.1,291,150.1z"/>
</g>
</svg>
