<?xml version="1.0" encoding="iso-8859-1"?>
<!-- Generator: Adobe Illustrator 16.0.0, SVG Export Plug-In . SVG Version: 6.00 Build 0)  -->
<!DOCTYPE svg PUBLIC "-//W3C//DTD SVG 1.1//EN" "http://www.w3.org/Graphics/SVG/1.1/DTD/svg11.dtd">
<svg version="1.1" id="Capa_1" xmlns="http://www.w3.org/2000/svg" xmlns:xlink="http://www.w3.org/1999/xlink" x="0px" y="0px"
	 width="323.863px" height="323.863px" viewBox="0 0 323.863 323.863" style="enable-background:new 0 0 323.863 323.863;"
	 xml:space="preserve">
<g>
	<g>
		<polygon points="227.433,219.776 323.863,128.16 263.72,64.853 		"/>
		<polygon points="194.469,122.104 196.299,127.815 220.319,202.801 249.776,77.008 252.022,67.429 254.148,58.366 253.8,58.285 
			168.35,38.272 168.033,39.606 192.639,116.396 		"/>
		<polygon points="160.043,50.05 156.843,40.055 155.936,37.23 72.024,64.112 75.102,73.712 134.944,133.555 139.438,138.054 
			143.931,142.546 154.251,152.866 158.074,156.685 161.892,160.508 211.001,209.608 211.08,209.351 187.598,136.079 
			185.772,130.365 183.948,124.656 163.252,60.057 		"/>
		<path d="M62.303,68.558l-0.15,0.15L0,130.86l109.851,109.852l4.493,4.492l4.493,4.493l1.912,1.914l1.376,1.377l5.745,5.748
			l1.221,1.218l4.52,4.52l3.829,3.828l4.288,4.288l4.002,4.002l4.003,3.997l6.035,6.044l19.296-19.301l0.433-0.428l0.849-0.849
			l4.261-4.261l2.162-2.162l2.948-2.953l2.125-2.125l1.35-1.351l11.443-11.438l0.586-0.591l8.189-8.19l5.021-5.015l3.175-3.175
			l0.469-0.475l-0.248-0.242l-2.014-2.015l-2.305-2.31l-4.319-4.313l-51.21-51.216l-3.818-3.815l-3.818-3.818l-7.852-7.852
			l-4.493-4.493l-4.493-4.493L78.698,84.95l-8.343-8.343L62.303,68.558z M162.728,216.18c8.87,0,16.063,7.192,16.063,16.062
			c0,8.875-7.193,16.063-16.063,16.063c-8.872,0-16.065-7.193-16.065-16.063S153.855,216.18,162.728,216.18z"/>
	</g>
</g>
<g>
</g>
<g>
</g>
<g>
</g>
<g>
</g>
<g>
</g>
<g>
</g>
<g>
</g>
<g>
</g>
<g>
</g>
<g>
</g>
<g>
</g>
<g>
</g>
<g>
</g>
<g>
</g>
<g>
</g>
</svg>
