<?xml version="1.0" encoding="iso-8859-1"?>
<!-- Generator: Adobe Illustrator 18.1.1, SVG Export Plug-In . SVG Version: 6.00 Build 0)  -->
<svg version="1.1" id="Capa_1" xmlns="http://www.w3.org/2000/svg" xmlns:xlink="http://www.w3.org/1999/xlink" x="0px" y="0px"
	 viewBox="0 0 432.367 432.367" style="enable-background:new 0 0 432.367 432.367;" xml:space="preserve">
<g>
	<g>
		<path d="M216.183,432.367c119.283,0,216.183-96.9,216.183-216.183S335.467,0,216.183,0S0,96.9,0,216.183
			S96.9,432.367,216.183,432.367z M216.183,34c100.583,0,182.183,81.883,182.183,182.183s-81.883,182.183-182.183,182.183
			S34,316.767,34,216.183S115.6,34,216.183,34z"/>
		<path d="M188.7,252.167l72.817,56.667c3.117,2.267,6.8,3.683,10.483,3.683c5.1,0,10.2-2.267,13.317-6.517
			c5.667-7.367,4.533-18.133-3.117-23.8l-66.017-51.567v-116.45c0-9.35-7.65-17-17-17c-9.35,0-17,7.65-17,17V238.85
			C182.183,244.233,184.733,249.05,188.7,252.167z"/>
	</g>
</g>
<g>
</g>
<g>
</g>
<g>
</g>
<g>
</g>
<g>
</g>
<g>
</g>
<g>
</g>
<g>
</g>
<g>
</g>
<g>
</g>
<g>
</g>
<g>
</g>
<g>
</g>
<g>
</g>
<g>
</g>
</svg>
