<?xml version="1.0" encoding="iso-8859-1"?>
<!-- Generator: Adobe Illustrator 16.0.0, SVG Export Plug-In . SVG Version: 6.00 Build 0)  -->
<!DOCTYPE svg PUBLIC "-//W3C//DTD SVG 1.1//EN" "http://www.w3.org/Graphics/SVG/1.1/DTD/svg11.dtd">
<svg version="1.1" id="Capa_1" xmlns="http://www.w3.org/2000/svg" xmlns:xlink="http://www.w3.org/1999/xlink" x="0px" y="0px"
	 width="530.402px" height="530.402px" viewBox="0 0 530.402 530.402" style="enable-background:new 0 0 530.402 530.402;"
	 xml:space="preserve">
<g>
	<g>
		<path d="M530.402,265.201C530.402,118.734,411.668,0,265.201,0S0,118.734,0,265.201s118.734,265.201,265.201,265.201
			S530.402,411.668,530.402,265.201z M437.439,249.901h70.521v30.6h-70.521V249.901z M249.901,22.442h30.6v70.523h-30.6V22.442z
			 M92.963,280.501H22.442v-30.6h70.521V280.501L92.963,280.501z M235.381,249.917c-1.667-4.312-3.314-8.638-4.832-13.033
			c-1.502-4.403-3.106-8.749-4.465-13.228l-2.114-6.677l-1.946-6.766c-0.67-2.246-1.273-4.522-1.854-6.814
			c-0.576-2.295-1.227-4.55-1.738-6.879c-1.104-4.615-2.121-9.275-3.011-14.006c-0.884-4.73-1.667-9.517-2.16-14.458
			c3.834,3.155,7.381,6.463,10.823,9.829c3.437,3.366,6.75,6.802,9.973,10.281c1.652,1.72,3.167,3.51,4.755,5.263
			c1.582,1.757,3.143,3.525,4.639,5.328l4.547,5.376l4.379,5.465c2.971,3.617,5.694,7.366,8.522,11.059
			c2.812,3.7,5.496,7.473,8.155,11.255c0.952,1.355,1.854,2.738,2.791,4.1c7.965-4.587,16.019-9.002,24.168-13.241
			c13.978-7.206,28.222-13.917,42.818-19.969c7.301-3.021,14.673-5.909,22.154-8.589l11.285-3.905
			c3.819-1.196,7.604-2.454,11.447-3.602c3.877-1.086,7.687-2.298,11.622-3.274c3.896-1.052,7.834-2.025,11.812-2.922
			c3.979-0.9,7.98-1.75,12.054-2.47c4.063-0.74,8.17-1.396,12.405-1.812c-2.699,3.29-5.526,6.34-8.396,9.309
			c-2.861,2.99-5.79,5.845-8.749,8.65c-2.956,2.812-5.951,5.545-8.99,8.198c-2.996,2.733-6.12,5.227-9.177,7.849
			c-3.091,2.558-6.236,5.009-9.354,7.519l-9.517,7.215c-6.383,4.734-12.88,9.26-19.446,13.654
			c-13.14,8.776-26.631,16.894-40.386,24.517c-13.782,7.573-27.807,14.697-42.179,21.16l-21.038,9.458l-8.28-18.348
			C242.315,267.028,238.729,258.533,235.381,249.917z M249.901,437.439h30.6v70.521h-30.6V437.439z"/>
	</g>
</g>
<g>
</g>
<g>
</g>
<g>
</g>
<g>
</g>
<g>
</g>
<g>
</g>
<g>
</g>
<g>
</g>
<g>
</g>
<g>
</g>
<g>
</g>
<g>
</g>
<g>
</g>
<g>
</g>
<g>
</g>
</svg>
