<?xml version="1.0" encoding="iso-8859-1"?>
<!-- Generator: Adobe Illustrator 16.0.0, SVG Export Plug-In . SVG Version: 6.00 Build 0)  -->
<!DOCTYPE svg PUBLIC "-//W3C//DTD SVG 1.1//EN" "http://www.w3.org/Graphics/SVG/1.1/DTD/svg11.dtd">
<svg version="1.1" id="Capa_1" xmlns="http://www.w3.org/2000/svg" xmlns:xlink="http://www.w3.org/1999/xlink" x="0px" y="0px"
	 width="72.872px" height="72.873px" viewBox="0 0 72.872 72.873" style="enable-background:new 0 0 72.872 72.873;"
	 xml:space="preserve">
<g>
	<path d="M5.48,52.477h61.913c0.881,0,1.724-0.351,2.347-0.972c0.62-0.623,0.971-1.469,0.971-2.347V4.935
		c0-1.832-1.483-3.318-3.317-3.318H5.48c-0.88,0-1.724,0.351-2.346,0.972c-0.62,0.622-0.971,1.466-0.971,2.346v44.223
		c0,0.916,0.37,1.745,0.971,2.346C3.733,52.105,4.565,52.477,5.48,52.477z M8.797,8.253h55.28v37.59H8.797V8.253z M69.532,60.608
		H45.727v-1.462c0-1.383-1.121-2.506-2.506-2.506h-13.57c-1.385,0-2.506,1.121-2.506,2.506v1.462H3.34
		c-1.845,0-3.34,1.495-3.34,3.34s1.497,3.341,3.34,3.341h23.805v1.461c0,1.383,1.121,2.506,2.506,2.506h13.57
		c1.385,0,2.506-1.121,2.506-2.506v-1.461h23.806c1.845,0,3.34-1.496,3.34-3.341S71.377,60.608,69.532,60.608z M40.716,66.246
		h-8.561V61.65h8.561V66.246z M11.335,25.143h50.201V12.25H11.335V25.143z M13.998,14.913h44.876v7.568H13.998V14.913z
		 M11.335,41.845h50.201V28.952H11.335V41.845z M13.998,31.615h44.876v7.568H13.998V31.615z M16.078,17.025h3.34v3.34h-3.34V17.025z
		 M21.088,17.025h3.34v3.34h-3.34V17.025z M26.099,17.025h3.34v3.34h-3.34V17.025z M16.078,33.728h3.34v3.339h-3.34V33.728z
		 M21.088,33.728h3.34v3.339h-3.34V33.728z M26.099,33.728h3.34v3.339h-3.34V33.728z"/>
</g>
<g>
</g>
<g>
</g>
<g>
</g>
<g>
</g>
<g>
</g>
<g>
</g>
<g>
</g>
<g>
</g>
<g>
</g>
<g>
</g>
<g>
</g>
<g>
</g>
<g>
</g>
<g>
</g>
<g>
</g>
</svg>
