<?xml version="1.0" encoding="iso-8859-1"?>
<!-- Generator: Adobe Illustrator 16.0.0, SVG Export Plug-In . SVG Version: 6.00 Build 0)  -->
<!DOCTYPE svg PUBLIC "-//W3C//DTD SVG 1.1//EN" "http://www.w3.org/Graphics/SVG/1.1/DTD/svg11.dtd">
<svg version="1.1" id="Capa_1" xmlns="http://www.w3.org/2000/svg" xmlns:xlink="http://www.w3.org/1999/xlink" x="0px" y="0px"
	 width="31.974px" height="31.975px" viewBox="0 0 31.974 31.975" style="enable-background:new 0 0 31.974 31.975;"
	 xml:space="preserve">
<g>
	<g>
		<path d="M13.869,0c-1.009,0-1.827,0.818-1.827,1.827V7.06h2.076V2.077h14.259V21.04h-6.922v2.077h7.17
			c1.01,0,1.827-0.818,1.827-1.827V1.827C30.452,0.818,29.634,0,28.625,0H13.869z"/>
		<path d="M25.718,16.609h-4.264v2.076h4.264c0.578,0,1.045-0.461,1.045-1.039C26.763,17.07,26.296,16.609,25.718,16.609z"/>
		<path d="M21.455,14.671h4.44c0.577,0,1.044-0.461,1.044-1.038c0-0.577-0.467-1.038-1.044-1.038h-5.509l1.067,1.081L21.455,14.671
			L21.455,14.671z"/>
		<path d="M25.896,8.581h-9.224c-0.103,0-0.2,0.01-0.292,0.037l2.073,2.04h7.442c0.577,0,1.044-0.462,1.044-1.038
			C26.94,9.043,26.472,8.581,25.896,8.581z"/>
		<path d="M25.896,4.567h-9.224c-0.579,0-1.045,0.462-1.045,1.038c0,0.577,0.466,1.039,1.045,1.039h9.224
			c0.576,0,1.044-0.462,1.044-1.039C26.94,5.029,26.472,4.567,25.896,4.567z"/>
		<path d="M3.35,8.72c-1.009,0-1.827,0.818-1.827,1.827v19.6c0,1.01,0.818,1.828,1.827,1.828h14.756
			c1.009,0,1.827-0.818,1.827-1.828V16.122c0-0.892-0.352-1.748-0.979-2.381l-3.979-4.018c-0.636-0.642-1.501-1.003-2.406-1.003
			H3.35z M3.6,29.896V10.935h8.858v3.94c0,0.358,0.143,0.701,0.396,0.954c0.254,0.252,0.598,0.394,0.956,0.392l4.01-0.025h0.036
			v13.703H3.6V29.896z M16.369,14.119l-1.834,0.028v-1.803l1.838,1.775H16.369z"/>
		<path d="M6.127,15.364h2.895c0.576,0,1.044-0.461,1.044-1.038c0-0.577-0.468-1.038-1.044-1.038H6.127
			c-0.577,0-1.043,0.461-1.043,1.038C5.084,14.902,5.55,15.364,6.127,15.364z"/>
		<path d="M15.352,17.303H6.127c-0.577,0-1.043,0.461-1.043,1.037c0,0.577,0.466,1.038,1.043,1.038h9.225
			c0.577,0,1.044-0.461,1.044-1.038C16.396,17.764,15.929,17.303,15.352,17.303z"/>
		<path d="M15.352,21.178H6.127c-0.577,0-1.043,0.53-1.043,1.106c0,0.575,0.466,1.108,1.043,1.108h9.225
			c0.577,0,1.044-0.533,1.044-1.108C16.396,21.708,15.929,21.178,15.352,21.178z"/>
		<path d="M15.352,25.191H6.127c-0.577,0-1.043,0.463-1.043,1.039s0.466,1.037,1.043,1.037h9.225c0.577,0,1.044-0.461,1.044-1.037
			S15.929,25.191,15.352,25.191z"/>
		<path d="M2.647,7.091C2.686,7.24,2.819,7.336,2.976,7.336h0.001c0,0,0.025-0.087,0.088-0.245c0.2-0.511,0.753-1.637,2.045-2.056
			c1.688-0.548,2.366-0.174,2.366-0.174v1.148c0,0.122,0.095,0.232,0.207,0.28c0.112,0.049,0.255,0.026,0.344-0.056l2.494-2.311
			c0.152-0.142,0.241-0.342,0.237-0.551c-0.007-0.209-0.099-0.405-0.256-0.541L7.997,0.698C7.906,0.621,7.778,0.603,7.672,0.654
			C7.563,0.703,7.494,0.812,7.494,0.932L7.495,1.83c0,0-2.633,0.461-3.995,2.216c-1.017,1.31-0.956,2.511-0.86,3.037
			C2.643,7.09,2.646,7.084,2.647,7.091z"/>
		<path d="M29.419,24.775h-0.002c0,0-0.447,1.793-2.134,2.341c-1.69,0.548-2.368,0.202-2.368,0.202V26.17
			c0-0.122-0.096-0.232-0.207-0.279c-0.111-0.05-0.252-0.027-0.342,0.055l-2.492,2.311c-0.152,0.143-0.242,0.344-0.236,0.553
			c0.004,0.207,0.097,0.404,0.256,0.539l2.501,2.133c0.092,0.076,0.22,0.095,0.329,0.045c0.105-0.051,0.178-0.159,0.177-0.278
			l-0.002-0.897c0,0,2.632-0.461,3.994-2.215c1.017-1.311,0.954-2.533,0.858-3.058C29.722,24.915,29.582,24.775,29.419,24.775z"/>
	</g>
</g>
<g>
</g>
<g>
</g>
<g>
</g>
<g>
</g>
<g>
</g>
<g>
</g>
<g>
</g>
<g>
</g>
<g>
</g>
<g>
</g>
<g>
</g>
<g>
</g>
<g>
</g>
<g>
</g>
<g>
</g>
</svg>
