<?xml version="1.0" encoding="iso-8859-1"?>
<!-- Generator: Adobe Illustrator 19.0.0, SVG Export Plug-In . SVG Version: 6.00 Build 0)  -->
<svg version="1.1" id="Capa_1" xmlns="http://www.w3.org/2000/svg" xmlns:xlink="http://www.w3.org/1999/xlink" x="0px" y="0px"
	 viewBox="0 0 522.462 522.462" style="enable-background:new 0 0 522.462 522.462;" xml:space="preserve">
<g>
	<path d="M522.462,87.077c0-22.901-3.178-76.192-32.654-76.192H218.237c-25.688,0-32.937,28.365-33.198,43.691
		c0.022,1.894,2.046,185.8-19.897,304.617H65.308c-9.491,0-17.241,3.004-23.097,8.882c-12.67,12.735-12.496,35.331-12.321,59.191
		c0.152,21.356,0.327,45.607-10.036,56.012c-4.376,4.397-10.863,6.531-19.854,6.531v21.769h271.571
		c14.912,0,26.776-4.332,35.331-12.974c7.924-7.968,11.995-18.743,14.106-30.564h81.177c9.274,0,17.764-3.853,25.296-11.407
		c45.193-45.519,51.833-239.418,51.441-358.67h43.538V87.077z M261.231,97.962h43.538c5.987,0,10.885,4.876,10.885,10.885
		s-4.898,10.885-10.885,10.885h-43.538c-6.008,0-10.885-4.876-10.885-10.885S255.222,97.962,261.231,97.962z M250.346,185.038h141.5
		c5.987,0,10.885,4.876,10.885,10.885c0,6.008-4.898,10.885-10.885,10.885h-141.5c-6.008,0-10.885-4.876-10.885-10.885
		C239.462,189.915,244.338,185.038,250.346,185.038z M323.121,446.269c0.196-6.444,0.174-12.909,0.131-19.157
		c-0.131-17.524-0.283-37.378,6.008-43.713c1.045-1.045,2.961-2.438,7.619-2.438c3.44,0,8.011,0.457,10.188,2.656
		c3.679,3.744,3.592,14.237,3.461,24.425c-0.131,12.648-0.174,26.602,6.03,38.227C356.558,446.269,323.121,446.269,323.121,446.269z
		 M391.846,337.423H239.462c-6.008,0-10.885-4.876-10.885-10.885c0-6.008,4.876-10.885,10.885-10.885h152.385
		c5.987,0,10.885,4.876,10.885,10.885C402.731,332.547,397.833,337.423,391.846,337.423z M239.462,283
		c0-6.008,4.876-10.885,10.885-10.885h130.615c5.987,0,10.885,4.876,10.885,10.885s-4.898,10.885-10.885,10.885H250.346
		C244.338,293.885,239.462,289.008,239.462,283z M402.731,250.346H250.346c-6.008,0-10.885-4.876-10.885-10.885
		c0-6.008,4.876-10.885,10.885-10.885h152.385c5.987,0,10.885,4.876,10.885,10.885C413.615,245.47,408.717,250.346,402.731,250.346z
		 M402.731,163.269H283c-6.008,0-10.885-4.876-10.885-10.885c0-6.008,4.876-10.885,10.885-10.885h119.731
		c5.987,0,10.885,4.876,10.885,10.885C413.615,158.393,408.717,163.269,402.731,163.269z M478.749,76.192l-0.392-21.552
		c0.044-0.653,1.11-21.747,11.32-21.943c4.289,2.264,9.361,20.964,10.667,43.495H478.749z"/>
</g>
<g>
</g>
<g>
</g>
<g>
</g>
<g>
</g>
<g>
</g>
<g>
</g>
<g>
</g>
<g>
</g>
<g>
</g>
<g>
</g>
<g>
</g>
<g>
</g>
<g>
</g>
<g>
</g>
<g>
</g>
</svg>
