<?xml version="1.0" encoding="iso-8859-1"?>
<!-- Generator: Adobe Illustrator 18.0.0, SVG Export Plug-In . SVG Version: 6.00 Build 0)  -->
<!DOCTYPE svg PUBLIC "-//W3C//DTD SVG 1.1//EN" "http://www.w3.org/Graphics/SVG/1.1/DTD/svg11.dtd">
<svg version="1.1" id="Capa_1" xmlns="http://www.w3.org/2000/svg" xmlns:xlink="http://www.w3.org/1999/xlink" x="0px" y="0px"
	 viewBox="0 0 453.553 453.553" style="enable-background:new 0 0 453.553 453.553;" xml:space="preserve">
<g>
	<path d="M427.066,219.362c0-103.254-84.003-187.257-187.257-187.257S52.553,116.108,52.553,219.362s84.003,187.257,187.257,187.257
		S427.066,322.616,427.066,219.362z M306.04,188.362c-6.5,8.5-2,21-12.5,27.5c-11,7-24,0-35.5,2
		c-13.5,2.5-24.666,22.833,10.021,55.167c16.69,15.557,55.925,31.418,53.181,80.821c-12.562,7.635-26.276,13.549-40.811,17.439
		c0.569-7.751,1.459-15.575,0.007-22.11c-2.5-12-11.5-9-21.5-7c-10,1.5-19.5,2.5-29,0c-8-2-18-8.5-26.5-6c-9.5,2.5-7.5,11-3,17.5
		c5.408,7.887,12.033,14.658,18.46,21.547c-72.899-9.729-130.166-69.586-135.876-143.665c13.82,27.511,37.813,60.355,76.518,71.802
		c71,21,14-73.5,17.5-108c3.531-34.807,82.5-1.5,90-30s-29.25-24.75-14-58c11.457-24.981,2.311-36.132-10.58-45.223
		c77.817,1.294,142.055,59.386,152.963,134.53c-18.374-3.565-47.426-21.63-55.883-22.307
		C326.04,173.362,314.54,176.862,306.04,188.362z"/>
	<g>
		<path d="M449.34,4.887h-65.92c-2.323,0-4.213,1.89-4.213,4.212v46.012c0,2.323,1.89,4.212,4.213,4.212h1.577l-7.916,26.976
			c-0.246,0.839,0.082,1.742,0.81,2.227c0.337,0.225,0.724,0.336,1.109,0.336c0.447,0,0.892-0.15,1.258-0.445l35.95-29.093h33.132
			c2.323,0,4.213-1.89,4.213-4.212V9.099C453.553,6.777,451.663,4.887,449.34,4.887z"/>
		<path d="M68.556,96.823h1.577c2.323,0,4.213-1.89,4.213-4.212V46.599c0-2.322-1.89-4.212-4.213-4.212H4.213
			C1.89,42.387,0,44.277,0,46.599v46.012c0,2.323,1.89,4.212,4.213,4.212h33.132l35.95,29.093c0.365,0.296,0.811,0.445,1.258,0.445
			c0.386,0,0.773-0.111,1.109-0.336c0.728-0.485,1.056-1.388,0.81-2.227L68.556,96.823z"/>
		<path d="M436.34,394.229h-33.132l-35.95-29.093c-0.68-0.551-1.64-0.594-2.367-0.109c-0.728,0.485-1.056,1.388-0.81,2.227
			l7.916,26.976h-1.577c-2.323,0-4.213,1.89-4.213,4.212v46.012c0,2.322,1.89,4.212,4.213,4.212h65.92
			c2.323,0,4.213-1.89,4.213-4.212v-46.012C440.553,396.119,438.663,394.229,436.34,394.229z"/>
	</g>
</g>
<g>
</g>
<g>
</g>
<g>
</g>
<g>
</g>
<g>
</g>
<g>
</g>
<g>
</g>
<g>
</g>
<g>
</g>
<g>
</g>
<g>
</g>
<g>
</g>
<g>
</g>
<g>
</g>
<g>
</g>
</svg>
