<?xml version="1.0" encoding="iso-8859-1"?>
<!-- Generator: Adobe Illustrator 19.0.0, SVG Export Plug-In . SVG Version: 6.00 Build 0)  -->
<svg version="1.1" id="Capa_1" xmlns="http://www.w3.org/2000/svg" xmlns:xlink="http://www.w3.org/1999/xlink" x="0px" y="0px"
	 viewBox="0 0 502.707 502.707" style="enable-background:new 0 0 502.707 502.707;" xml:space="preserve">
<g>
	<g>
		<g>
			<path d="M251.343,0.011C112.535,0.011,0,112.546,0,251.375s112.535,251.321,251.343,251.321s251.364-112.535,251.364-251.321
				C502.707,112.546,390.172,0.011,251.343,0.011z M360.771,154.199c0,0-42.041-0.69-59.061,25.863
				c-4.681,7.334-10.872,20.19-17.688,35.398h44.328v59.794h-69.868c-10.052,23.685-19.306,44.997-25.346,55.372
				c-15.531,26.51-42.085,47.973-65.014,57.572c-22.843,9.556-50.152,8.801-50.152,8.801v-58.284c0,0,43.53,5.867,67.15-43.551
				c23.62-49.462,51.662-139.541,95.947-172.739c44.285-33.219,79.747-25.108,79.704-25.108V154.199z"/>
		</g>
	</g>
	<g>
	</g>
	<g>
	</g>
	<g>
	</g>
	<g>
	</g>
	<g>
	</g>
	<g>
	</g>
	<g>
	</g>
	<g>
	</g>
	<g>
	</g>
	<g>
	</g>
	<g>
	</g>
	<g>
	</g>
	<g>
	</g>
	<g>
	</g>
	<g>
	</g>
</g>
<g>
</g>
<g>
</g>
<g>
</g>
<g>
</g>
<g>
</g>
<g>
</g>
<g>
</g>
<g>
</g>
<g>
</g>
<g>
</g>
<g>
</g>
<g>
</g>
<g>
</g>
<g>
</g>
<g>
</g>
</svg>
