<?xml version="1.0" encoding="iso-8859-1"?>
<!-- Generator: Adobe Illustrator 16.0.0, SVG Export Plug-In . SVG Version: 6.00 Build 0)  -->
<!DOCTYPE svg PUBLIC "-//W3C//DTD SVG 1.1//EN" "http://www.w3.org/Graphics/SVG/1.1/DTD/svg11.dtd">
<svg version="1.1" id="Capa_1" xmlns="http://www.w3.org/2000/svg" xmlns:xlink="http://www.w3.org/1999/xlink" x="0px" y="0px"
	 width="426.128px" height="426.128px" viewBox="0 0 426.128 426.128" style="enable-background:new 0 0 426.128 426.128;"
	 xml:space="preserve">
<g>
	<path d="M422.656,141.252l-11.718-17.62c-6.082-9.142-18.238-11.956-27.717-6.419l-148.22,92.74l-76.873-21.102l65.183-0.021
		c5.52-0.002,10.811-2.206,14.703-6.126c3.889-3.917,6.002-9.225,5.965-14.747l-0.074-18.092
		c-0.08-11.39-9.332-20.582-20.725-20.586l-116.007-0.03c-0.002,0-0.002,0-0.004,0c-5.545,0-10.857,2.221-14.752,6.166
		L5.979,222.974c-7.693,7.79-8,20.22-0.703,28.38l47.811,53.477c4.021,4.5,9.682,6.916,15.459,6.916
		c2.795,0,5.615-0.565,8.289-1.733l60.82-26.554l109.196-0.02c4.223,0,8.342-1.289,11.812-3.695l158.55-109.978
		C426.488,163.332,428.91,150.654,422.656,141.252z"/>
</g>
<g>
</g>
<g>
</g>
<g>
</g>
<g>
</g>
<g>
</g>
<g>
</g>
<g>
</g>
<g>
</g>
<g>
</g>
<g>
</g>
<g>
</g>
<g>
</g>
<g>
</g>
<g>
</g>
<g>
</g>
</svg>
