<?xml version="1.0" encoding="iso-8859-1"?>
<!-- Generator: Adobe Illustrator 19.0.0, SVG Export Plug-In . SVG Version: 6.00 Build 0)  -->
<svg version="1.1" id="Capa_1" xmlns="http://www.w3.org/2000/svg" xmlns:xlink="http://www.w3.org/1999/xlink" x="0px" y="0px"
	 viewBox="0 0 474.557 474.557" style="enable-background:new 0 0 474.557 474.557;" xml:space="preserve">
<g>
	<g>
		<path style="fill:#010002;" d="M0,2.017V472.54h474.557V2.017H0z M435.449,41.125c0,33.952,0,358.334,0,392.329
			c-33.996,0-362.346,0-396.342,0c0-33.996,0-358.377,0-392.329C73.082,41.103,401.454,41.103,435.449,41.125z"/>
		<path style="fill:#010002;" d="M186.199,305.086L61.477,250.814v-30.027l124.722-53.992v35.376L99.29,235.456l86.909,34.556
			V305.086z"/>
		<path style="fill:#010002;" d="M197.761,328.901l45.148-188.054h26.144l-45.644,188.054H197.761z"/>
		<path style="fill:#010002;" d="M280.442,305.086v-35.053l87.081-34.362l-87.081-33.952v-34.902l124.852,54.035v29.768
			C405.293,250.642,280.442,305.086,280.442,305.086z"/>
	</g>
	<g>
	</g>
	<g>
	</g>
	<g>
	</g>
	<g>
	</g>
	<g>
	</g>
	<g>
	</g>
	<g>
	</g>
	<g>
	</g>
	<g>
	</g>
	<g>
	</g>
	<g>
	</g>
	<g>
	</g>
	<g>
	</g>
	<g>
	</g>
	<g>
	</g>
</g>
<g>
</g>
<g>
</g>
<g>
</g>
<g>
</g>
<g>
</g>
<g>
</g>
<g>
</g>
<g>
</g>
<g>
</g>
<g>
</g>
<g>
</g>
<g>
</g>
<g>
</g>
<g>
</g>
<g>
</g>
</svg>
