<?xml version="1.0" encoding="utf-8"?>
<!-- Generator: Adobe Illustrator 18.1.0, SVG Export Plug-In . SVG Version: 6.00 Build 0)  -->
<svg version="1.1" id="Calque_1" xmlns="http://www.w3.org/2000/svg" xmlns:xlink="http://www.w3.org/1999/xlink" x="0px" y="0px"
	 viewBox="0 0 512 512" enable-background="new 0 0 512 512" xml:space="preserve">
<path fill="#010202" d="M491.1,174.5c-28.7-28.7-50.2-35.9-80-35.9s-58.6-9.7-104.6-45.1c-54.6-42-146.6-61.5-151.8-50.2
	s39,83.6,113.6,83.6c86.1,0,104.8,33.3,104.8,33.3S361.9,194,301.4,194s-124.1-67.7-185.6-67.7s-83.1,47.2-90.2,37.9
	c-7.2-9.2,3.1-45.1,3.1-45.1C3,142.7,0.9,178.6,0.9,178.6s-2.1,42,0,49.2s18.8,16.6,11.3,29.7c-19.5,33.8,33,48.6,55.4,88.2
	c17.7,31.3,40,71.8,54.4,71.8s17.4-22.6,27.7-21.5s22.6-11.3,22.6-20.5s-41-27.7-41-27.7s-46.1-17.2-30.8-18.5
	c36.9-3.1,43.1-12.3,70.8-12.3s30.8,9.2,75.9,8.2c20.5-0.5,7.2,18.5,7.2,18.5s-100.5,87.2-104.6,96.4c-4.1,9.2,10.3,14.4,10.3,14.4
	l53.3-48.2c0,0-27.7,41-33.8,51.3c-6.2,10.3,9.2,14.4,9.2,14.4s29.2-40.5,45.1-56.4c15.9-15.9,79-64.6,95.4-81s17.7-38.5,34.1-54.9
	s41.9-45.9,54.2-45.9c12.3,0,14.3,10.6,50.2,10.6s43.1-23.6,43.1-23.6S519.8,203.2,491.1,174.5z M467,184.9c-2.8,6.2-12.3,8-21.4,4
	c-9.1-4-14.2-12.3-11.4-18.5c2.8-6.2,12.3-8,21.4-4C464.6,170.4,469.8,178.7,467,184.9z"/>
</svg>
