<?xml version="1.0" encoding="iso-8859-1"?>
<!-- Generator: Adobe Illustrator 18.0.0, SVG Export Plug-In . SVG Version: 6.00 Build 0)  -->
<!DOCTYPE svg PUBLIC "-//W3C//DTD SVG 1.1//EN" "http://www.w3.org/Graphics/SVG/1.1/DTD/svg11.dtd">
<svg version="1.1" id="Capa_1" xmlns="http://www.w3.org/2000/svg" xmlns:xlink="http://www.w3.org/1999/xlink" x="0px" y="0px"
	 viewBox="0 0 482.812 482.812" style="enable-background:new 0 0 482.812 482.812;" xml:space="preserve">
<g>
	<path d="M108.478,140.93c3.262,0.655,6.566-1.065,7.869-4.142l25.857-60.38h57.482v251.219c0,22.612,18.322,40.935,40.921,40.935
		c22.612,0,40.934-18.322,40.934-40.935V76.409h59.098l25.825,60.398c1.316,3.058,4.608,4.778,7.9,4.123
		c3.261-0.675,5.611-3.56,5.611-6.895V28.092c0-11.125-9.027-20.152-20.153-20.152H123.006c-11.143,0-20.17,9.027-20.17,20.152
		v105.943C102.836,137.371,105.187,140.256,108.478,140.93z"/>
	<path d="M480.131,417.176l-87.964-47.985c-1.818-0.99-4.075-0.801-5.704,0.498c-1.629,1.303-2.289,3.466-1.726,5.47l6.492,22.49
		H91.582l6.522-22.49c0.563-2.004-0.11-4.167-1.743-5.47c-1.61-1.299-3.869-1.504-5.704-0.498L2.694,417.176
		C1.035,418.068,0,419.809,0,421.703c0,1.898,1.035,3.636,2.694,4.529l87.964,48.004c1.835,1.004,4.093,0.799,5.704-0.504
		c1.633-1.299,2.306-3.463,1.743-5.469L91.6,445.792h299.629l-6.492,22.472c-0.594,2.006,0.097,4.17,1.726,5.469
		c1.628,1.303,3.886,1.508,5.704,0.519l87.951-48.002c1.659-0.91,2.693-2.647,2.693-4.529
		C482.812,419.823,481.777,418.082,480.131,417.176z"/>
</g>
<g>
</g>
<g>
</g>
<g>
</g>
<g>
</g>
<g>
</g>
<g>
</g>
<g>
</g>
<g>
</g>
<g>
</g>
<g>
</g>
<g>
</g>
<g>
</g>
<g>
</g>
<g>
</g>
<g>
</g>
</svg>
