<?xml version="1.0" encoding="iso-8859-1"?>
<!-- Generator: Adobe Illustrator 18.0.0, SVG Export Plug-In . SVG Version: 6.00 Build 0)  -->
<!DOCTYPE svg PUBLIC "-//W3C//DTD SVG 1.1//EN" "http://www.w3.org/Graphics/SVG/1.1/DTD/svg11.dtd">
<svg version="1.1" id="Capa_1" xmlns="http://www.w3.org/2000/svg" xmlns:xlink="http://www.w3.org/1999/xlink" x="0px" y="0px"
	 viewBox="0 0 370 370" style="enable-background:new 0 0 370 370;" xml:space="preserve">
<g>
	<path d="M60.342,252.514h249.316c8.861,0,16.07-7.208,16.07-16.068V78.801c0-8.86-7.209-16.068-16.07-16.068H289v-9.494
		c0-8.861-7.209-16.07-16.069-16.07h-96.614c-1.988-6.617-8.13-11.453-15.386-11.453H60.342c-8.861,0-16.07,7.208-16.07,16.068
		v194.662C44.271,245.306,51.48,252.514,60.342,252.514z M177,47.168h95.931c3.347,0,6.069,2.723,6.069,6.07v9.494H177V47.168z"/>
	<path d="M360,311.435H240v-6.754c0-2.761-2.238-5-5-5h-14.803v-1.93c0-2.761-2.238-5-5-5H195v-25.4c0-5.523-4.477-10-10-10
		s-10,4.477-10,10v25.4h-20.197c-2.762,0-5,2.239-5,5v1.93H135c-2.762,0-5,2.239-5,5v6.754H10c-5.523,0-10,4.477-10,10
		c0,5.523,4.477,10,10,10h120v7.85c0,2.761,2.238,5,5,5h100c2.762,0,5-2.239,5-5v-7.85h120c5.522,0,10-4.477,10-10
		C370,315.913,365.522,311.435,360,311.435z"/>
</g>
<g>
</g>
<g>
</g>
<g>
</g>
<g>
</g>
<g>
</g>
<g>
</g>
<g>
</g>
<g>
</g>
<g>
</g>
<g>
</g>
<g>
</g>
<g>
</g>
<g>
</g>
<g>
</g>
<g>
</g>
</svg>
