<?xml version="1.0" encoding="iso-8859-1"?>
<!-- Generator: Adobe Illustrator 19.0.0, SVG Export Plug-In . SVG Version: 6.00 Build 0)  -->
<svg version="1.1" id="Capa_1" xmlns="http://www.w3.org/2000/svg" xmlns:xlink="http://www.w3.org/1999/xlink" x="0px" y="0px"
	 viewBox="0 0 452.986 452.986" style="enable-background:new 0 0 452.986 452.986;" xml:space="preserve">
<g>
	<g>
		<path style="fill:#010002;" d="M0,1.898v449.19h452.986V1.898H0z M423.025,31.86c0,26.791,0,362.475,0,389.288
			c-26.834,0-366.25,0-393.084,0c0-26.812,0-362.497,0-389.288C56.774,31.86,396.191,31.86,423.025,31.86z"/>
		<path style="fill:#010002;" d="M226.493,120.3v29.66h155.223V120.3H226.493z M182.338,253.565h199.4v-29.638h-199.4V253.565z
			 M67.171,357.191h314.567v-29.638H67.171V357.191z"/>
		<path style="fill:#010002;" d="M195.841,128.195c0-37.965-30.803-68.768-68.703-68.768c-38.008,0-68.725,30.76-68.746,68.768
			c0,34.103,24.914,62.189,57.421,67.603l0.324,16.006l-9.858,3.365l0.022,78.518c0,0,9.448,9.642,21.808,8.822
			c12.36-0.777,19.78-8.822,19.78-8.822l0.022-78.561l-9.146-2.2l-0.302-17.127C170.992,190.341,195.841,162.277,195.841,128.195z
			 M127.095,181.195c-29.207,0-52.956-23.728-52.956-52.978s23.728-52.913,52.999-52.956c29.207,0,52.935,23.706,52.956,52.956
			C180.073,157.467,156.388,181.151,127.095,181.195z"/>
	</g>
	<g>
	</g>
	<g>
	</g>
	<g>
	</g>
	<g>
	</g>
	<g>
	</g>
	<g>
	</g>
	<g>
	</g>
	<g>
	</g>
	<g>
	</g>
	<g>
	</g>
	<g>
	</g>
	<g>
	</g>
	<g>
	</g>
	<g>
	</g>
	<g>
	</g>
</g>
<g>
</g>
<g>
</g>
<g>
</g>
<g>
</g>
<g>
</g>
<g>
</g>
<g>
</g>
<g>
</g>
<g>
</g>
<g>
</g>
<g>
</g>
<g>
</g>
<g>
</g>
<g>
</g>
<g>
</g>
</svg>
