<?xml version="1.0" encoding="utf-8"?>
<!-- Generator: Adobe Illustrator 20.0.0, SVG Export Plug-In . SVG Version: 6.00 Build 0)  -->
<svg version="1.1" id="Capa_1" xmlns="http://www.w3.org/2000/svg" xmlns:xlink="http://www.w3.org/1999/xlink" x="0px" y="0px"
	 viewBox="0 0 508.5 508.5" style="enable-background:new 0 0 508.5 508.5;" xml:space="preserve">
<style type="text/css">
	.st0{fill:#090509;}
</style>
<path class="st0" d="M268.5,96V46.4V46h-0.6c-1.4-16.4-14.6-30.1-31.2-30.1h-205C15.2,15.9,1.9,29.7,0.5,46L0,66v414.8
	c0-2.5,14.2,11.8,31.8,11.8h445c17.5,0,31.8-14.2,31.8-31.8c0,0,0-325.2,0-333.2c0-16-13.4-31.7-30.9-31.7C453,96,268.5,96,268.5,96
	z M481.8,459.8h-455v-148h455V459.8z M481.8,278.8h-455v-148h455V278.8z"/>
<g>
	<image style="overflow:visible;" width="32" height="32" xlink:href="D02BABAF.jpg"  transform="matrix(1 0 0 1 -7392 -7742)">
	</image>
</g>
</svg>
