<?xml version="1.0" encoding="utf-8"?>
<!-- Generator: Adobe Illustrator 20.0.0, SVG Export Plug-In . SVG Version: 6.00 Build 0)  -->
<svg version="1.1" id="Capa_1" xmlns="http://www.w3.org/2000/svg" xmlns:xlink="http://www.w3.org/1999/xlink" x="0px" y="0px"
	 viewBox="0 0 508.5 508.5" style="enable-background:new 0 0 508.5 508.5;" xml:space="preserve">
<g>
	<circle cx="70" cy="133.8" r="9"/>
	<path d="M24.8,86.7V167v14v66.3v14v66.3v14v80.3h459v-80.3v-14v-66.3v-14V181v-14V86.7H24.8z M469.7,407.8h-431v-66.3h431V407.8z
		 M469.7,327.5h-431v-66.3h431V327.5z M61,214.1c0-5,4-9,9-9s9,4,9,9s-4,9-9,9S61,219.1,61,214.1z M469.7,167h-431v-66.3h431V167z"
		/>
	<circle cx="70" cy="294.4" r="9"/>
	<circle cx="70" cy="374.7" r="9"/>
</g>
</svg>
