<?xml version="1.0" encoding="UTF-8" standalone="no"?>
<!-- Generator: Adobe Illustrator 16.0.0, SVG Export Plug-In . SVG Version: 6.00 Build 0)  -->

<svg
   xmlns:dc="http://purl.org/dc/elements/1.1/"
   xmlns:cc="http://creativecommons.org/ns#"
   xmlns:rdf="http://www.w3.org/1999/02/22-rdf-syntax-ns#"
   xmlns:svg="http://www.w3.org/2000/svg"
   xmlns="http://www.w3.org/2000/svg"
   xmlns:sodipodi="http://sodipodi.sourceforge.net/DTD/sodipodi-0.dtd"
   xmlns:inkscape="http://www.inkscape.org/namespaces/inkscape"
   version="1.1"
   id="Capa_1"
   x="0px"
   y="0px"
   width="401.991px"
   height="401.991px"
   viewBox="0 0 401.991 401.991"
   style="enable-background:new 0 0 401.991 401.991;"
   xml:space="preserve"
   inkscape:version="0.91 r13725"
   sodipodi:docname="minus-symbol.svg"><metadata
     id="metadata41"><rdf:RDF><cc:Work
         rdf:about=""><dc:format>image/svg+xml</dc:format><dc:type
           rdf:resource="http://purl.org/dc/dcmitype/StillImage" /></cc:Work></rdf:RDF></metadata><defs
     id="defs39" /><sodipodi:namedview
     pagecolor="#ffffff"
     bordercolor="#666666"
     borderopacity="1"
     objecttolerance="10"
     gridtolerance="10"
     guidetolerance="10"
     inkscape:pageopacity="0"
     inkscape:pageshadow="2"
     inkscape:window-width="1428"
     inkscape:window-height="449"
     id="namedview37"
     showgrid="false"
     inkscape:zoom="0.58707782"
     inkscape:cx="-201.84717"
     inkscape:cy="200.9955"
     inkscape:window-x="157"
     inkscape:window-y="200"
     inkscape:window-maximized="0"
     inkscape:current-layer="Capa_1" /><g
     id="g3"
     transform="matrix(0.74576209,0,0,0.37852026,52.803902,123.21097)"><path
       d="m 394,154.174 c -5.331,-5.33 -11.806,-7.995 -19.417,-7.995 l -347.177,0 c -7.611,0 -14.084,2.665 -19.414,7.995 C 2.662,159.503 0,165.972 0,173.587 l 0,54.82 c 0,7.617 2.662,14.086 7.992,19.41 5.33,5.332 11.803,7.994 19.414,7.994 l 347.176,0 c 7.611,0 14.086,-2.662 19.417,-7.994 5.325,-5.324 7.991,-11.793 7.991,-19.41 l 0,-54.82 c 10e-4,-7.615 -2.658,-14.087 -7.99,-19.413 z"
       id="path5"
       inkscape:connector-curvature="0" /></g><g
     id="g7" /><g
     id="g9" /><g
     id="g11" /><g
     id="g13" /><g
     id="g15" /><g
     id="g17" /><g
     id="g19" /><g
     id="g21" /><g
     id="g23" /><g
     id="g25" /><g
     id="g27" /><g
     id="g29" /><g
     id="g31" /><g
     id="g33" /><g
     id="g35" /></svg>