<?xml version="1.0" encoding="iso-8859-1"?>
<!-- Generator: Adobe Illustrator 18.1.1, SVG Export Plug-In . SVG Version: 6.00 Build 0)  -->
<svg version="1.1" id="Capa_1" xmlns="http://www.w3.org/2000/svg" xmlns:xlink="http://www.w3.org/1999/xlink" x="0px" y="0px"
	 viewBox="0 0 12.887 12.887" style="enable-background:new 0 0 12.887 12.887;" xml:space="preserve">
<g>
	<path style="fill:#030104;" d="M8.324,3.289h2.86c0.118,0,0.215-0.096,0.215-0.215v-2.86C11.399,0.096,11.302,0,11.184,0h-2.86
		C8.206,0,8.11,0.096,8.11,0.214v1.075H3.132c-0.196,0-0.355,0.159-0.355,0.355V4.71H1.702c-0.118,0-0.214,0.097-0.214,0.215v2.859
		c0,0.119,0.096,0.215,0.214,0.215h1.075v3.066c0,0.196,0.159,0.356,0.355,0.356H8.11v1.252c0,0.118,0.096,0.214,0.214,0.214h2.86
		c0.118,0,0.215-0.096,0.215-0.214v-2.86c0-0.118-0.097-0.215-0.215-0.215h-2.86c-0.118,0-0.214,0.097-0.214,0.215v0.896H3.488
		V7.998h1.074c0.118,0,0.215-0.096,0.215-0.215V6.709H8.11v1.074c0,0.119,0.096,0.215,0.214,0.215h2.86
		c0.118,0,0.215-0.096,0.215-0.215V4.924c0-0.118-0.097-0.215-0.215-0.215h-2.86c-0.118,0-0.214,0.097-0.214,0.215v1.074H4.777
		V4.924c0-0.118-0.097-0.215-0.215-0.215H3.488V2H8.11v1.074C8.11,3.193,8.206,3.289,8.324,3.289z"/>
</g>
<g>
</g>
<g>
</g>
<g>
</g>
<g>
</g>
<g>
</g>
<g>
</g>
<g>
</g>
<g>
</g>
<g>
</g>
<g>
</g>
<g>
</g>
<g>
</g>
<g>
</g>
<g>
</g>
<g>
</g>
</svg>
