<?xml version="1.0" encoding="iso-8859-1"?>
<!-- Generator: Adobe Illustrator 18.0.0, SVG Export Plug-In . SVG Version: 6.00 Build 0)  -->
<!DOCTYPE svg PUBLIC "-//W3C//DTD SVG 1.1//EN" "http://www.w3.org/Graphics/SVG/1.1/DTD/svg11.dtd">
<svg version="1.1" id="Capa_1" xmlns="http://www.w3.org/2000/svg" xmlns:xlink="http://www.w3.org/1999/xlink" x="0px" y="0px"
	 viewBox="0 0 220.221 220.221" style="enable-background:new 0 0 220.221 220.221;" xml:space="preserve">
<path d="M189.106,69.044V58.078h-34.435l-40.023-40.55l2.233-2.262l-9.889-10.018L43.371,69.706
	c-3.954-1.801-8.099-3.015-12.492-3.162c-0.497-0.021-0.997-0.032-1.498-0.034c-0.519,0.006-1.083,0.043-1.628,0.083
	c-1.11,0.099-2.19,0.188-3.336,0.441c-1.143,0.244-2.293,0.55-3.425,0.914c-40.511,14.496-10.707,95.573-6.303,118.997
	c4.583-24.376,7.132-50.637,15.295-74.233l100.932,102.261l89.306-90.482l-54.727-55.447H189.106z M108.006,69.044
	c-2.02,4.262-6.307,7.211-11.287,7.211c-6.917,0-12.527-5.681-12.527-12.693c0-7.014,5.611-12.693,12.527-12.693
	c4.98,0,9.267,2.948,11.287,7.21H96.719v10.966H108.006z"/>
<g>
</g>
<g>
</g>
<g>
</g>
<g>
</g>
<g>
</g>
<g>
</g>
<g>
</g>
<g>
</g>
<g>
</g>
<g>
</g>
<g>
</g>
<g>
</g>
<g>
</g>
<g>
</g>
<g>
</g>
</svg>
