<?xml version="1.0" encoding="utf-8"?>
<!-- Generator: Adobe Illustrator 20.0.0, SVG Export Plug-In . SVG Version: 6.00 Build 0)  -->
<svg version="1.1" id="Capa_1" xmlns="http://www.w3.org/2000/svg" xmlns:xlink="http://www.w3.org/1999/xlink" x="0px" y="0px"
	 viewBox="0 0 31.9 31.9" style="enable-background:new 0 0 31.9 31.9;" xml:space="preserve">
<path d="M18.2,20.2l0.3-0.4L29.4,3.9c0,0,0.3-0.6-0.6-1.4c-0.5-0.4-0.8-0.4-1.1-0.4L14.3,16.5l-0.3,0.4L18.2,20.2z"/>
<path d="M13.2,17.7l-0.3,0.4l-3.5,4.3l4.3,3.4l3.5-4.4l0.3-0.4L13.2,17.7z M13.3,19.4c0.1,0,0.2,0,0.3,0.1l0.2,0.2
	c0.2,0.2,0.2,0.5,0.1,0.7l-1.8,2.2c-0.1,0.1-0.2,0.2-0.3,0.2c-0.1,0-0.2,0-0.3-0.1l-0.2-0.2C11,22.3,11,22,11.2,21.8l1.8-2.2
	C13,19.5,13.1,19.5,13.3,19.4z"/>
<path d="M24,3.6l2-2H0.5L0.4,32h7l-0.1-0.2c3.3,0.8,5.4-2.2,5.6-4.9c0,0,0,0,0,0c0-0.1,0-0.2,0-0.3l-4-3.2c-0.1,0-0.4,0.3-0.4,0.3
	c-2.5,2.1-0.7,4.4-1.4,5.5C7,29.6,6.7,29.8,6.4,30H2.4L2.5,3.6H24z M7.7,30.1C7.8,30,7.9,29.9,8,29.8c0.5-0.7,0.4-1.5,0.3-2.2
	c-0.1-0.7-0.2-1.4,0.1-2c0.3,0.6,0.4,1.3,0.5,2.1c0.1,1.2,0.7,1.8,1.6,2.5c-0.2,0.2-0.5,0.5-0.9,0.6C9.1,31,8.5,31,8,30.9
	c-0.2,0-0.3-0.1-0.4-0.3C7.6,30.5,7.6,30.3,7.7,30.1z"/>
</svg>
