<?xml version="1.0" encoding="iso-8859-1"?>
<!-- Generator: Adobe Illustrator 18.1.1, SVG Export Plug-In . SVG Version: 6.00 Build 0)  -->
<svg version="1.1" id="Capa_1" xmlns="http://www.w3.org/2000/svg" xmlns:xlink="http://www.w3.org/1999/xlink" x="0px" y="0px"
	 viewBox="0 0 27.5 27.5" style="enable-background:new 0 0 27.5 27.5;" xml:space="preserve">
<g>
	<g>
		<path style="fill:#010002;" d="M26.463,0.173H1.037C0.467,0.173,0,0.641,0,1.211V26.29c0,0.569,0.467,1.037,1.037,1.037h25.426
			c0.57,0,1.037-0.468,1.037-1.037V1.211C27.5,0.641,27.033,0.173,26.463,0.173z M24.572,20.722H2.625V2.972h21.947V20.722z"/>
		<circle style="fill:#010002;" cx="6.854" cy="7.502" r="3.048"/>
		<path style="fill:#010002;" d="M7.441,14.734l-2.86,3.371c-0.712,0.839-0.394,1.525,0.706,1.525h16.378
			c1.101,0,1.562-0.786,1.024-1.746l-4.938-8.832c-0.536-0.96-1.453-0.983-2.037-0.05l-2.871,4.587
			c-0.584,0.933-1.747,1.229-2.585,0.658C9.42,13.676,8.153,13.895,7.441,14.734z"/>
	</g>
</g>
<g>
</g>
<g>
</g>
<g>
</g>
<g>
</g>
<g>
</g>
<g>
</g>
<g>
</g>
<g>
</g>
<g>
</g>
<g>
</g>
<g>
</g>
<g>
</g>
<g>
</g>
<g>
</g>
<g>
</g>
</svg>
