<?xml version="1.0" encoding="iso-8859-1"?>
<!-- Generator: Adobe Illustrator 18.1.1, SVG Export Plug-In . SVG Version: 6.00 Build 0)  -->
<svg version="1.1" id="Capa_1" xmlns="http://www.w3.org/2000/svg" xmlns:xlink="http://www.w3.org/1999/xlink" x="0px" y="0px"
	 viewBox="0 0 14.746 14.746" style="enable-background:new 0 0 14.746 14.746;" xml:space="preserve">
<g>
	<g>
		<path style="fill:#030104;" d="M12.547,0H2.199C1.981,0,1.803,0.177,1.803,0.396V14.35c0,0.219,0.177,0.396,0.396,0.396h7.718
			c0.113,0,0.221-0.049,0.295-0.133l2.631-2.945c0.064-0.072,0.1-0.166,0.1-0.264V0.396C12.942,0.177,12.766,0,12.547,0z
			 M11.695,10.305l-2.36-0.002l0,0c-0.117,0-0.229,0.047-0.311,0.129c-0.082,0.082-0.129,0.195-0.128,0.313l0.008,2.953H2.992V0.993
			h8.703V10.305z"/>
		<path style="fill:#030104;" d="M3.802,10.41c0,0,0.59,0.049,1.033-0.434c0,0,1.037-1.289,1.238-1.691c0,0,0.198-0.338,2.37-0.74
			l2.033,0.55c0,0,0.571,0.055,0.371-0.064C10.645,7.91,9.745,7.767,9.264,7.486C9.241,7.472,9.213,7.458,9.186,7.444
			c0.249-0.063,1.039,0.068,1.56,0.313c0.281,0.162,0.241,0.281,0.441,0.121c0.202-0.161-0.2-0.362-0.522-0.483
			c-0.268-0.1-1.597-0.248-2.039-0.295C8.164,6.772,7.674,6.233,7.328,5.235c0,0-0.282-1.046-0.322-1.408
			C6.967,3.465,7.127,3.103,7.207,3.425c0,0,0.161,0.362,0.081,0.643l0.08,0.483c0,0,0.407-1.1,0.08-1.485c0,0-0.76-0.284-0.8,0.399
			C6.608,4.149,6.69,5.148,6.771,5.308c0,0-0.799,2.449-1.844,3.937c0,0-0.442,0.643-0.644,0.723c0,0-0.482,0.203-0.16-0.24
			c0,0,0.763-0.885,0.925-1.125c0,0-1.159,0.744-1.393,1.092C3.467,9.869,3.29,10.211,3.802,10.41z M7.125,6.068
			c0.08,0.402,0.863,1.179,0.863,1.179c-0.322,0.041-1.714,0.52-1.714,0.52L7.125,6.068z"/>
	</g>
</g>
<g>
</g>
<g>
</g>
<g>
</g>
<g>
</g>
<g>
</g>
<g>
</g>
<g>
</g>
<g>
</g>
<g>
</g>
<g>
</g>
<g>
</g>
<g>
</g>
<g>
</g>
<g>
</g>
<g>
</g>
</svg>
