<?xml version="1.0" encoding="iso-8859-1"?>
<!-- Generator: Adobe Illustrator 18.0.0, SVG Export Plug-In . SVG Version: 6.00 Build 0)  -->
<!DOCTYPE svg PUBLIC "-//W3C//DTD SVG 1.1//EN" "http://www.w3.org/Graphics/SVG/1.1/DTD/svg11.dtd">
<svg version="1.1" id="Capa_1" xmlns="http://www.w3.org/2000/svg" xmlns:xlink="http://www.w3.org/1999/xlink" x="0px" y="0px"
	 viewBox="0 0 490 490" style="enable-background:new 0 0 490 490;" xml:space="preserve">
<g>
	<g>
		<path d="M54.412,44.56H3.486C1.561,44.56,0,46.121,0,48.046v235.193c0,1.926,1.561,3.487,3.486,3.487h50.926
			c1.925,0,3.485-1.562,3.485-3.487V48.046C57.897,46.121,56.337,44.56,54.412,44.56z"/>
		<path d="M199.439,44.56h-30.259c-1.925,0-3.485,1.561-3.485,3.485v235.193c0,1.926,1.561,3.487,3.485,3.487h30.259
			c1.925,0,3.486-1.562,3.486-3.487V48.046C202.926,46.121,201.364,44.56,199.439,44.56z"/>
		<path d="M149.16,44.56h-15.13c-1.925,0-3.485,1.561-3.485,3.485v235.193c0,1.926,1.56,3.487,3.485,3.487h15.13
			c1.926,0,3.486-1.562,3.486-3.487V48.046C152.646,46.121,151.086,44.56,149.16,44.56z"/>
		<path d="M111.06,44.56H80.798c-1.925,0-3.486,1.561-3.486,3.485v235.193c0,1.926,1.562,3.487,3.486,3.487h30.262
			c1.925,0,3.485-1.562,3.485-3.487V48.046C114.545,46.121,112.984,44.56,111.06,44.56z"/>
		<path d="M365.135,44.56h-50.926c-1.924,0-3.484,1.561-3.484,3.485v114.589c0,3.631,4.869,3.463,5.4,3.463
			c16.707,0,34.271,3.343,47.485,10.849c1.498,0.852,2.98,0.119,3.562-0.306c0.971-0.709,1.449-1.628,1.449-2.829V48.046
			C368.621,46.121,367.06,44.56,365.135,44.56z"/>
		<path d="M287.822,44.56h-30.259c-1.925,0-3.486,1.561-3.486,3.485v131.033c0,1.264,0.686,2.424,1.783,3.043
			c1.161,0.654,2.797,0.336,3.821-0.252c9.105-5.593,18.672-9.607,29.015-12.287c1.539-0.398,2.61-1.787,2.61-3.375V48.046
			C291.307,46.121,289.746,44.56,287.822,44.56z"/>
		<path d="M234.592,44.56h-15.131c-1.925,0-3.484,1.561-3.484,3.485v169.746c0,1.57,1.049,2.947,2.564,3.361
			c2.051,0.553,3.24-0.533,3.92-1.587c4.566-7.067,9.046-13.482,14.662-19.415c0.612-0.648,0.953-1.505,0.953-2.396V48.046
			C238.076,46.121,236.517,44.56,234.592,44.56z"/>
	</g>
	<g>
		<g>
			<path d="M479.938,397.233l-82.862-65.532c9.646-14.763,14.899-31.989,15.059-50.046c0.218-24.908-9.276-48.41-26.733-66.178
				c-17.674-17.988-41.299-27.895-66.519-27.895c-24.599,0-47.808,9.494-65.355,26.736c-17.768,17.457-27.672,40.789-27.89,65.697
				c-0.219,24.907,9.273,48.41,26.734,66.177c17.674,17.987,41.297,27.895,66.52,27.895c17.967,0,35.184-5.088,50.004-14.54
				c0,0,66.447,69.067,78.167,79.256c12.929,11.242,28.145,7.134,37.224-4.346C493.363,422.977,491.417,406.312,479.938,397.233z
				 M271.953,326.951c-12.317-12.536-19.019-29.12-18.863-46.693c0.155-17.575,7.143-34.038,19.679-46.355
				c12.381-12.165,28.757-18.864,46.113-18.864c17.794,0,34.464,6.99,46.935,19.682c12.319,12.536,19.018,29.119,18.862,46.694
				c-0.151,17.574-7.144,34.037-19.68,46.354c-12.38,12.164-28.755,18.864-46.108,18.864
				C301.094,346.633,284.424,339.643,271.953,326.951z"/>
		</g>
		<g>
			<path d="M349.566,292.936c-6.602,0-11.951-5.352-11.951-11.951c0-10.435-8.49-18.923-18.924-18.923
				c-6.6,0-11.951-5.351-11.951-11.951s5.352-11.952,11.951-11.952c23.614,0,42.826,19.212,42.826,42.826
				C361.517,287.585,356.166,292.936,349.566,292.936z"/>
		</g>
	</g>
</g>
<g>
</g>
<g>
</g>
<g>
</g>
<g>
</g>
<g>
</g>
<g>
</g>
<g>
</g>
<g>
</g>
<g>
</g>
<g>
</g>
<g>
</g>
<g>
</g>
<g>
</g>
<g>
</g>
<g>
</g>
</svg>
