<?xml version="1.0" encoding="iso-8859-1"?>
<!-- Generator: Adobe Illustrator 16.0.0, SVG Export Plug-In . SVG Version: 6.00 Build 0)  -->
<!DOCTYPE svg PUBLIC "-//W3C//DTD SVG 1.1//EN" "http://www.w3.org/Graphics/SVG/1.1/DTD/svg11.dtd">
<svg version="1.1" id="Capa_1" xmlns="http://www.w3.org/2000/svg" xmlns:xlink="http://www.w3.org/1999/xlink" x="0px" y="0px"
	 width="47.999px" height="48px" viewBox="0 0 47.999 48" style="enable-background:new 0 0 47.999 48;" xml:space="preserve">
<g>
	<path d="M44.307,14.548H3.693C1.655,14.548,0,16.203,0,18.241v11.518c0,2.038,1.653,3.692,3.693,3.692h40.614
		c2.039,0,3.692-1.654,3.692-3.692V18.241C48,16.203,46.346,14.548,44.307,14.548z M14.71,25.344l-3.615-0.634l-0.023,0.068
		l2.463,2.779l-2.011,1.176l-1.289-3.504l-0.045,0.022l-1.311,3.481l-1.943-1.178l2.417-2.824v-0.047l-3.548,0.657V23.06
		l3.503,0.699l0.023-0.044l-2.396-2.849l2.012-1.152l1.267,3.459h0.045l1.289-3.459l1.987,1.131l-2.44,2.87l0.021,0.067l3.594-0.723
		v2.283l0,0V25.344z M24.979,25.344l-3.617-0.634l-0.022,0.068l2.464,2.779l-2.011,1.176l-1.29-3.504l-0.044,0.022l-1.311,3.481
		l-1.944-1.178l2.417-2.824v-0.047l-3.549,0.657V23.06l3.504,0.699l0.023-0.044l-2.396-2.849l2.012-1.152l1.266,3.459h0.046
		l1.289-3.459l1.987,1.131l-2.441,2.87l0.023,0.067l3.594-0.723V25.344z M35.245,25.344l-3.616-0.634l-0.023,0.068l2.465,2.779
		l-2.012,1.176l-1.287-3.504l-0.047,0.022l-1.312,3.481l-1.943-1.178l2.42-2.824v-0.047l-3.551,0.657V23.06l3.505,0.699l0.023-0.044
		l-2.397-2.849l2.014-1.152l1.264,3.459h0.046l1.288-3.459l1.988,1.131l-2.44,2.87l0.024,0.067l3.592-0.723v2.283h0.001V25.344z
		 M42.527,30.407h-5.922v-2.283h5.922V30.407z"/>
</g>
<g>
</g>
<g>
</g>
<g>
</g>
<g>
</g>
<g>
</g>
<g>
</g>
<g>
</g>
<g>
</g>
<g>
</g>
<g>
</g>
<g>
</g>
<g>
</g>
<g>
</g>
<g>
</g>
<g>
</g>
</svg>
