<?xml version="1.0" encoding="UTF-8" standalone="no"?>
<!-- Created with Inkscape (http://www.inkscape.org/) -->

<svg
   xmlns:dc="http://purl.org/dc/elements/1.1/"
   xmlns:cc="http://creativecommons.org/ns#"
   xmlns:rdf="http://www.w3.org/1999/02/22-rdf-syntax-ns#"
   xmlns:svg="http://www.w3.org/2000/svg"
   xmlns="http://www.w3.org/2000/svg"
   xmlns:sodipodi="http://sodipodi.sourceforge.net/DTD/sodipodi-0.dtd"
   xmlns:inkscape="http://www.inkscape.org/namespaces/inkscape"
   width="512"
   height="512"
   viewBox="0 0 512.00001 512.00001"
   id="svg2"
   version="1.1"
   inkscape:version="0.91 r13725"
   sodipodi:docname="solr.svg">
  <defs
     id="defs4" />
  <sodipodi:namedview
     id="base"
     pagecolor="#ffffff"
     bordercolor="#666666"
     borderopacity="1.0"
     inkscape:pageopacity="0.0"
     inkscape:pageshadow="2"
     inkscape:zoom="1.4"
     inkscape:cx="377.4863"
     inkscape:cy="144.63714"
     inkscape:document-units="px"
     inkscape:current-layer="g3442"
     showgrid="false"
     units="px"
     fit-margin-top="0"
     fit-margin-left="0"
     fit-margin-right="0"
     fit-margin-bottom="0"
     inkscape:window-width="1858"
     inkscape:window-height="1057"
     inkscape:window-x="1734"
     inkscape:window-y="-8"
     inkscape:window-maximized="1" />
  <metadata
     id="metadata7">
    <rdf:RDF>
      <cc:Work
         rdf:about="">
        <dc:format>image/svg+xml</dc:format>
        <dc:type
           rdf:resource="http://purl.org/dc/dcmitype/StillImage" />
        <dc:title></dc:title>
      </cc:Work>
    </rdf:RDF>
  </metadata>
  <g
     inkscape:label="Calque 1"
     inkscape:groupmode="layer"
     id="layer1"
     transform="translate(1.1327333e-5,-540.36221)">
    <g
       id="g3442"
       transform="matrix(3.385644,0,0,3.1421616,-2.8584055,225.61387)">
      <g
         id="g3408" />
      <g
         id="g3418"
         transform="matrix(2.2571159,0,0,2.4320172,-311.31486,94.332527)">
        <path
           id="path3420"
           d="m 196.2,13 -33,35.7 41.5,-19.1 C 203.5,23.2 200.5,17.5 196.2,13 Z"
           inkscape:connector-curvature="0"
           style="fill:#262130" />
        <path
           id="path3422"
           d="m 171.7,2.4 c -4.6,0 -8.9,0.9 -12.9,2.6 L 154.4,42.3 176.5,2.8 C 175,2.5 173.4,2.4 171.7,2.4 Z"
           inkscape:connector-curvature="0"
           style="fill:#262130" />
        <path
           id="path3424"
           d="m 205,31.6 -39.3,22 36.9,-4.4 c 1.7,-4.1 2.7,-8.5 2.7,-13.2 0,-1.5 -0.1,-3 -0.3,-4.4 z"
           inkscape:connector-curvature="0"
           style="fill:#262130" />
        <path
           id="path3426"
           d="m 190.5,63.8 c 4.4,-3 8,-7 10.6,-11.6 l -34.5,6.8 23.9,4.8 z"
           inkscape:connector-curvature="0"
           style="fill:#262130" />
        <path
           id="path3428"
           d="m 178.6,3.1 -19.2,41.7 35.7,-33 C 190.5,7.5 184.9,4.4 178.6,3.1 Z"
           inkscape:connector-curvature="0"
           style="fill:#262130" />
        <path
           id="path3430"
           d="m 174.6,69.4 c 3.7,-0.3 7.3,-1.2 10.5,-2.6 l -19.4,-2.3 8.9,4.9 z"
           inkscape:connector-curvature="0"
           style="fill:#262130" />
        <path
           id="path3432"
           d="m 141.1,22.2 c -1.5,3.3 -2.5,7 -2.8,10.8 l 5.2,9.3 -2.4,-20.1 z"
           inkscape:connector-curvature="0"
           style="fill:#262130" />
        <path
           id="path3434"
           d="m 155.9,6.3 c -4.7,2.5 -8.8,6.2 -11.8,10.6 l 4.9,24.5 6.9,-35.1 z"
           inkscape:connector-curvature="0"
           style="fill:#262130" />
      </g>
    </g>
  </g>
</svg>
