<?xml version="1.0" encoding="iso-8859-1"?>
<!-- Generator: Adobe Illustrator 18.0.0, SVG Export Plug-In . SVG Version: 6.00 Build 0)  -->
<!DOCTYPE svg PUBLIC "-//W3C//DTD SVG 1.1//EN" "http://www.w3.org/Graphics/SVG/1.1/DTD/svg11.dtd">
<svg version="1.1" id="Capa_1" xmlns="http://www.w3.org/2000/svg" xmlns:xlink="http://www.w3.org/1999/xlink" x="0px" y="0px"
	 viewBox="0 0 297.001 297.001" style="enable-background:new 0 0 297.001 297.001;" xml:space="preserve">
<g>
	<path d="M42.806,65.464l21.843,31.037h15.019V9.508c0-5.247-4.253-9.5-9.5-9.5H23.834c-5.247,0-9.5,4.253-9.5,9.5v41.527
		C25.242,50.831,36.053,55.87,42.806,65.464z"/>
	<path d="M47.001,164.501c-11.065,0-21.437-5.384-27.805-14.432l-4.862-6.908v144.333c0,5.247,4.253,9.5,9.5,9.5h46.333
		c5.247,0,9.5-4.253,9.5-9.5V180.816l-6.307-16.315H47.001z"/>
	<path d="M128.381,118.24l4.252,10.998l8.91-3.294c13.158-4.864,27.637-1.09,36.791,8.85V58.001c0-5.247-4.253-9.5-9.5-9.5h-46.333
		c-5.247,0-9.5,4.253-9.5,9.5v42.703C119.885,104.479,125.423,110.589,128.381,118.24z"/>
	<path d="M157.598,235.652l-19.849-35.806l-12.957,4.79c-3.888,1.438-7.872,2.116-11.791,2.115v80.742c0,5.247,4.253,9.5,9.5,9.5
		h46.333c5.247,0,9.5-4.253,9.5-9.5v-35.55C169.709,249.572,162.138,243.844,157.598,235.652z"/>
	<path d="M213.668,250.553v36.94c0,5.247,4.253,9.5,9.5,9.5h46.333c1.062,0,2.08-0.182,3.033-0.503
		c-4.458-1.29-8.724-3.51-12.495-6.701L213.668,250.553z"/>
	<path d="M243.296,186.546l35.705,30.212V108.001c0-5.247-4.253-9.5-9.5-9.5h-46.333c-5.247,0-9.5,4.253-9.5,9.5v71.356l1.124-0.22
		C224.923,177.148,235.412,179.875,243.296,186.546z"/>
	<path d="M291.69,252.383l-60.667-51.333c-3.479-2.942-8.103-4.145-12.576-3.268l-23.287,4.566l-28.707-51.786
		c-3.592-6.479-11.373-9.363-18.321-6.797l-26.47,9.787l-11.003-28.46c-2.235-5.78-7.794-9.591-13.991-9.591H54.787l-27.52-39.102
		C22.498,69.624,13.14,68,6.368,72.765c-6.774,4.768-8.401,14.125-3.634,20.899l32,45.469c2.81,3.992,7.386,6.367,12.267,6.367
		h39.384l12.625,32.655c2.956,7.646,11.502,11.502,19.193,8.66l28.255-10.447l27.757,50.071c3.155,5.691,9.618,8.7,16.006,7.447
		l26.927-5.28l55.164,46.678c2.818,2.384,6.259,3.549,9.682,3.549c4.26,0,8.492-1.805,11.459-5.31
		C298.803,267.199,298.015,257.734,291.69,252.383z"/>
</g>
<g>
</g>
<g>
</g>
<g>
</g>
<g>
</g>
<g>
</g>
<g>
</g>
<g>
</g>
<g>
</g>
<g>
</g>
<g>
</g>
<g>
</g>
<g>
</g>
<g>
</g>
<g>
</g>
<g>
</g>
</svg>
