<?xml version="1.0" encoding="iso-8859-1"?>
<!-- Generator: Adobe Illustrator 16.0.0, SVG Export Plug-In . SVG Version: 6.00 Build 0)  -->
<!DOCTYPE svg PUBLIC "-//W3C//DTD SVG 1.1//EN" "http://www.w3.org/Graphics/SVG/1.1/DTD/svg11.dtd">
<svg version="1.1" id="Capa_1" xmlns="http://www.w3.org/2000/svg" xmlns:xlink="http://www.w3.org/1999/xlink" x="0px" y="0px"
	 width="490.969px" height="490.969px" viewBox="0 0 490.969 490.969" style="enable-background:new 0 0 490.969 490.969;"
	 xml:space="preserve">
<g>
	<path d="M366.093,124.285H20.418C9.143,124.285,0,133.418,0,144.699v321.172c0,11.275,9.137,20.417,20.418,20.417h345.671
		c11.271,0,20.408-9.142,20.408-20.417V144.699C386.508,133.418,377.369,124.285,366.093,124.285z M72.815,461.795H16.338v-47.984
		h56.477V461.795z M72.815,401.559H16.338v-61.247h56.477V401.559z M72.815,328.076H16.338v-57.161h56.477V328.076z M72.815,258.669
		H16.338v-50.003h56.477V258.669z M152.434,461.795H85.065v-47.984h67.362v47.984H152.434z M152.434,401.559H85.065v-61.247h67.362
		v61.247H152.434z M152.434,328.076H85.065v-57.161h67.362v57.161H152.434z M152.434,258.669H85.065v-50.003h67.362v50.003H152.434z
		 M225.918,461.795h-61.243v-47.984h61.243V461.795z M225.918,401.559h-61.243v-61.247h61.243V401.559z M225.918,328.076h-61.243
		v-57.161h61.243V328.076z M225.918,258.669h-61.243v-50.003h61.243V258.669z M295.323,461.795h-57.16v-47.984h57.16V461.795z
		 M295.323,401.559h-57.16v-61.247h57.16V401.559z M295.323,328.076h-57.16v-57.161h57.16V328.076z M295.323,258.669h-57.16v-50.003
		h57.16V258.669z M370.18,461.795h-62.6v-47.984h62.6V461.795z M370.18,401.559h-62.6v-61.247h62.6V401.559z M370.18,328.076h-62.6
		v-57.161h62.6V328.076z M370.18,258.669h-62.6v-50.003h62.6V258.669z M470.547,4.681H124.87c-11.274,0-20.413,9.135-20.413,20.418
		v87.958h16.334v-24h56.476v24h12.256v-24h67.354v24h12.257v-24h61.242v24h12.246v-24h57.163v50.014h-2.287
		c1.042,3.393,1.606,6.994,1.606,10.726v1.519h0.681v57.16h-0.681v12.25h0.681v61.245h-0.681v12.246h0.681v47.979h-0.681v24.494
		h71.455c11.272,0,20.409-9.141,20.409-20.413V25.099C490.957,13.816,481.818,4.681,470.547,4.681z M474.629,342.185h-62.605V294.21
		h62.6v47.975H474.629z M474.629,281.969h-62.605v-61.245h62.6v61.245H474.629z M474.629,208.48h-62.605v-57.166h62.6v57.166
		H474.629z M474.629,139.07h-62.605V89.057h62.6v50.014H474.629z"/>
</g>
<g>
</g>
<g>
</g>
<g>
</g>
<g>
</g>
<g>
</g>
<g>
</g>
<g>
</g>
<g>
</g>
<g>
</g>
<g>
</g>
<g>
</g>
<g>
</g>
<g>
</g>
<g>
</g>
<g>
</g>
</svg>
