<?xml version="1.0" encoding="iso-8859-1"?>
<!-- Generator: Adobe Illustrator 16.0.0, SVG Export Plug-In . SVG Version: 6.00 Build 0)  -->
<!DOCTYPE svg PUBLIC "-//W3C//DTD SVG 1.1//EN" "http://www.w3.org/Graphics/SVG/1.1/DTD/svg11.dtd">
<svg version="1.1" id="Capa_1" xmlns="http://www.w3.org/2000/svg" xmlns:xlink="http://www.w3.org/1999/xlink" x="0px" y="0px"
	 width="410.486px" height="410.486px" viewBox="0 0 410.486 410.486" style="enable-background:new 0 0 410.486 410.486;"
	 xml:space="preserve">
<g>
	<path d="M388.806,13.012H21.676C9.704,13.012,0,22.716,0,34.692v341.103c0,11.982,9.704,21.68,21.676,21.68h367.13
		c11.973,0,21.68-9.697,21.68-21.68V34.697C410.486,22.722,400.779,13.012,388.806,13.012z M77.331,371.46H17.346v-50.955h59.985
		V371.46z M77.331,307.504H17.346v-65.035h59.985V307.504z M77.331,229.451H17.346v-60.706h59.985V229.451z M77.331,155.735H17.346
		v-53.114h59.985V155.735z M161.884,371.46H90.336v-50.955h71.547V371.46z M161.884,307.504H90.336v-65.035h71.547V307.504z
		 M161.884,229.451H90.336v-60.706h71.547V229.451z M161.884,155.735H90.336v-53.114h71.547V155.735z M239.935,371.46H174.89
		v-50.955h65.045V371.46z M239.935,307.504H174.89v-65.035h65.045V307.504z M239.935,229.451H174.89v-60.706h65.045V229.451z
		 M239.935,155.735H174.89v-53.114h65.045V155.735z M313.643,371.46h-60.704v-50.955h60.704V371.46z M313.643,307.504h-60.704
		v-65.035h60.704V307.504z M313.643,229.451h-60.704v-60.706h60.704V229.451z M313.643,155.735h-60.704v-53.114h60.704V155.735z
		 M393.14,371.46h-66.484v-50.955h66.484V371.46z M393.14,307.504h-66.484v-65.035h66.484V307.504z M393.14,229.451h-66.484v-60.706
		h66.484V229.451z M393.14,155.735h-66.484v-53.114h66.484V155.735z M106.335,214.118l14.36-14.358l-14.36-14.361l5-5.004
		l14.361,14.362l14.371-14.362l5.001,5.004l-14.367,14.361l14.367,14.358l-5.001,5.009l-14.371-14.366l-14.361,14.366
		L106.335,214.118z M106.335,290.256l14.36-14.364l-14.36-14.363l5-5.002l14.361,14.358l14.371-14.358l5.001,5.002l-14.367,14.363
		l14.367,14.364l-5.001,5.002l-14.376-14.37l-14.36,14.364L106.335,290.256z M106.335,359.598l14.36-14.365l-14.36-14.363l5-5.001
		l14.361,14.358l14.371-14.358l5.001,5.001l-14.367,14.363l14.367,14.365l-5.001,5.001l-14.371-14.357l-14.361,14.357
		L106.335,359.598z M106.335,143.363l14.36-14.362l-14.36-14.361l5-5.004l14.361,14.361l14.371-14.361l5.001,5.004l-14.367,14.361
		l14.367,14.362l-5.001,5.004l-14.371-14.361l-14.361,14.361L106.335,143.363z"/>
</g>
<g>
</g>
<g>
</g>
<g>
</g>
<g>
</g>
<g>
</g>
<g>
</g>
<g>
</g>
<g>
</g>
<g>
</g>
<g>
</g>
<g>
</g>
<g>
</g>
<g>
</g>
<g>
</g>
<g>
</g>
</svg>
