<?xml version="1.0" encoding="iso-8859-1"?>
<!-- Generator: Adobe Illustrator 16.0.0, SVG Export Plug-In . SVG Version: 6.00 Build 0)  -->
<!DOCTYPE svg PUBLIC "-//W3C//DTD SVG 1.1//EN" "http://www.w3.org/Graphics/SVG/1.1/DTD/svg11.dtd">
<svg version="1.1" id="Capa_1" xmlns="http://www.w3.org/2000/svg" xmlns:xlink="http://www.w3.org/1999/xlink" x="0px" y="0px"
	 width="45.934px" height="45.934px" viewBox="0 0 45.934 45.934" style="enable-background:new 0 0 45.934 45.934;"
	 xml:space="preserve">
<g>
	<g>
		<path d="M10.634,24.838c0-4.133,1.61-8.021,4.533-10.941c1.576-1.576,3.433-2.771,5.458-3.536
			c-0.111-0.841-0.542-1.612-1.214-2.147l-7.049-5.604c-1.199-0.954-2.898-0.954-4.098,0L1.229,8.213C0.443,8.838,0,9.787,0,10.791
			v26.104c0,1.817,1.446,3.245,3.264,3.245h14.097c1.011,0,1.916-0.434,2.52-1.15c-1.736-0.763-3.333-1.839-4.714-3.22
			C12.245,32.847,10.634,28.973,10.634,24.838z M7.524,9.696c0-1.54,1.249-2.789,2.789-2.789s2.789,1.249,2.789,2.789
			c0,1.541-1.249,2.789-2.789,2.789S7.524,11.237,7.524,9.696z"/>
		<path d="M45.025,38.743l-7.264-7.264c1.145-2.001,1.754-4.274,1.754-6.642c0-3.581-1.395-6.947-3.927-9.479
			s-5.897-3.927-9.479-3.927c-3.582,0-6.948,1.395-9.479,3.928c-2.532,2.531-3.927,5.897-3.927,9.479s1.394,6.947,3.927,9.479
			c2.532,2.532,5.898,3.927,9.479,3.927c2.677,0,5.233-0.779,7.412-2.229l7.115,7.116c0.606,0.605,1.399,0.909,2.194,0.909
			c0.794,0,1.588-0.303,2.194-0.909C46.236,41.919,46.236,39.955,45.025,38.743z M33.469,32.197
			c-1.966,1.966-4.58,3.049-7.359,3.049c-2.78,0-5.395-1.083-7.359-3.049c-1.966-1.965-3.048-4.579-3.048-7.359
			c0-2.779,1.083-5.394,3.048-7.358c1.966-1.965,4.58-3.048,7.359-3.048s5.394,1.083,7.359,3.048
			C37.525,21.537,37.525,28.141,33.469,32.197z"/>
		<path d="M20.212,18.942c-1.575,1.575-2.443,3.669-2.443,5.896c0,2.228,0.868,4.322,2.443,5.896
			c1.575,1.575,3.669,2.441,5.896,2.441c0.119,0,0.238-0.003,0.354-0.008V16.507c-0.116-0.005-0.235-0.008-0.354-0.008
			C23.882,16.499,21.787,17.366,20.212,18.942z"/>
	</g>
</g>
<g>
</g>
<g>
</g>
<g>
</g>
<g>
</g>
<g>
</g>
<g>
</g>
<g>
</g>
<g>
</g>
<g>
</g>
<g>
</g>
<g>
</g>
<g>
</g>
<g>
</g>
<g>
</g>
<g>
</g>
</svg>
