<?xml version="1.0" encoding="iso-8859-1"?>
<!-- Generator: Adobe Illustrator 16.0.0, SVG Export Plug-In . SVG Version: 6.00 Build 0)  -->
<!DOCTYPE svg PUBLIC "-//W3C//DTD SVG 1.1//EN" "http://www.w3.org/Graphics/SVG/1.1/DTD/svg11.dtd">
<svg version="1.1" id="Capa_1" xmlns="http://www.w3.org/2000/svg" xmlns:xlink="http://www.w3.org/1999/xlink" x="0px" y="0px"
	 width="32px" height="32px" viewBox="0 0 32 32" style="enable-background:new 0 0 32 32;" xml:space="preserve">
<g>
	<path d="M31,2H1C0.448,2,0,2.448,0,3v5.688c0,0.552,0.448,1,1,1h30c0.552,0,1-0.448,1-1V3C32,2.448,31.552,2,31,2z M30,7.687
		h-8.546V3.999H30V7.687z M31,12.156H1c-0.552,0-1,0.448-1,1v5.688c0,0.553,0.448,1,1,1h30c0.552,0,1-0.447,1-1v-5.688
		C32,12.604,31.552,12.156,31,12.156z M30,17.844H14.977v-3.688H30V17.844z M31,22.312H1c-0.552,0-1,0.446-1,1V29
		c0,0.552,0.448,1,1,1h30c0.552,0,1-0.448,1-1v-5.688C32,22.76,31.552,22.312,31,22.312z M30,28h-2.751v-3.688H30V28z"/>
</g>
<g>
</g>
<g>
</g>
<g>
</g>
<g>
</g>
<g>
</g>
<g>
</g>
<g>
</g>
<g>
</g>
<g>
</g>
<g>
</g>
<g>
</g>
<g>
</g>
<g>
</g>
<g>
</g>
<g>
</g>
</svg>
