<?xml version="1.0" encoding="iso-8859-1"?>
<!-- Generator: Adobe Illustrator 16.0.0, SVG Export Plug-In . SVG Version: 6.00 Build 0)  -->
<!DOCTYPE svg PUBLIC "-//W3C//DTD SVG 1.1//EN" "http://www.w3.org/Graphics/SVG/1.1/DTD/svg11.dtd">
<svg version="1.1" id="Capa_1" xmlns="http://www.w3.org/2000/svg" xmlns:xlink="http://www.w3.org/1999/xlink" x="0px" y="0px"
	 width="32.247px" height="32.247px" viewBox="0 0 32.247 32.247" style="enable-background:new 0 0 32.247 32.247;"
	 xml:space="preserve">
<g>
	<path d="M0.002,2.221h24.52v7.39h-0.725c-0.431-1.705-0.906-2.931-1.431-3.677c-0.522-0.743-1.241-1.338-2.153-1.78
		c-0.511-0.24-1.402-0.361-2.678-0.361h-2.033V24.85c0,1.396,0.077,2.269,0.231,2.616c0.154,0.349,0.456,0.654,0.905,0.916
		c0.449,0.263,1.062,0.394,1.842,0.394h0.906v0.744H5.094v-0.746H6c0.792,0,1.429-0.142,1.912-0.424
		c0.349-0.188,0.624-0.511,0.825-0.966c0.147-0.321,0.222-1.168,0.222-2.536V3.792H6.986c-1.839,0-3.174,0.389-4.006,1.168
		c-1.168,1.086-1.906,2.637-2.215,4.65H0v-7.39h0.002V2.221z M29.509,6.119h2.738l-3.651-3.652l-3.654,3.652h2.74v20.258h-2.74
		l3.654,3.651l3.651-3.651h-2.738V6.119z"/>
</g>
<g>
</g>
<g>
</g>
<g>
</g>
<g>
</g>
<g>
</g>
<g>
</g>
<g>
</g>
<g>
</g>
<g>
</g>
<g>
</g>
<g>
</g>
<g>
</g>
<g>
</g>
<g>
</g>
<g>
</g>
</svg>
