<?xml version="1.0" encoding="iso-8859-1"?>
<!-- Generator: Adobe Illustrator 19.0.0, SVG Export Plug-In . SVG Version: 6.00 Build 0)  -->
<svg version="1.1" id="Capa_1" xmlns="http://www.w3.org/2000/svg" xmlns:xlink="http://www.w3.org/1999/xlink" x="0px" y="0px"
	 viewBox="0 0 489.959 489.959" style="enable-background:new 0 0 489.959 489.959;" xml:space="preserve">
<g>
	<g>
		<g>
			<rect x="58.586" y="78.162" style="fill:#010002;" width="223.107" height="30.674"/>
			<path style="fill:#010002;" d="M345.801,130.687V5.684H0v384.844h154.361c30.178,55.825,89.217,93.747,157.078,93.747
				c98.557,0,178.52-79.898,178.52-178.455C489.959,218.954,427.921,146.714,345.801,130.687z M166.03,322.127
				c-9.06,0-16.372-7.312-16.372-16.329c0-9.038,7.312-16.372,16.372-16.372c9.017,0,16.329,7.334,16.329,16.372
				C182.359,314.815,175.047,322.127,166.03,322.127z M58.586,182.737v30.652h100.39c-13.374,22.024-22.261,47.046-25.022,73.945
				H58.586v30.674h75.023c1.186,17.537,4.918,34.384,10.807,50.174c-59.773,0-113.462,0-122.134,0c0-20.255,0-319.938,0-340.214
				c20.061,0,281.154,0,301.214,0c0,7.097,0,48.405,0,99.959c-4.012-0.28-8.003-0.604-12.08-0.604
				c-50.778,0-96.551,21.355-129.036,55.437L58.586,182.737L58.586,182.737z M327.854,160.346c0,9.038-7.356,16.372-16.415,16.372
				c-8.995,0-16.351-7.334-16.351-16.372c0-9.038,7.356-16.372,16.351-16.372C320.477,143.953,327.854,151.308,327.854,160.346z
				 M311.439,467.579c-8.995,0-16.351-7.313-16.351-16.351c0-9.06,7.356-16.394,16.351-16.394c9.038,0,16.372,7.312,16.415,16.394
				C327.854,460.245,320.499,467.579,311.439,467.579z M410.47,231.94l-69.156,69.156c0.345,1.855,0.561,3.753,0.561,5.695
				c0,17.774-14.388,32.162-32.14,32.162c-17.71,0-32.033-14.28-32.14-31.968l-70.989-55.178c-6.32-4.918-7.744-13.633-3.192-19.435
				c4.508-5.846,13.331-6.579,19.586-1.661l66.244,51.511c2.459-2.071,5.177-3.861,8.24-5.112c4.228-2.114,8.93-3.408,13.956-3.408
				c4.271,0,8.348,0.884,12.08,2.394c0,0.582,0,1.186,0,1.769c0.712,0.367,1.402,0.755,2.114,1.165l65.942-65.963
				c6.061-6.018,15.121-6.665,20.341-1.467C417.114,216.776,416.489,225.922,410.47,231.94z M456.891,322.127
				c-9.103,0-16.351-7.312-16.351-16.329c0-9.038,7.248-16.372,16.351-16.372c9.017,0,16.351,7.334,16.372,16.372
				C473.263,314.815,465.907,322.127,456.891,322.127z"/>
		</g>
	</g>
	<g>
	</g>
	<g>
	</g>
	<g>
	</g>
	<g>
	</g>
	<g>
	</g>
	<g>
	</g>
	<g>
	</g>
	<g>
	</g>
	<g>
	</g>
	<g>
	</g>
	<g>
	</g>
	<g>
	</g>
	<g>
	</g>
	<g>
	</g>
	<g>
	</g>
</g>
<g>
</g>
<g>
</g>
<g>
</g>
<g>
</g>
<g>
</g>
<g>
</g>
<g>
</g>
<g>
</g>
<g>
</g>
<g>
</g>
<g>
</g>
<g>
</g>
<g>
</g>
<g>
</g>
<g>
</g>
</svg>
