<?xml version="1.0" encoding="iso-8859-1"?>
<!-- Generator: Adobe Illustrator 16.0.0, SVG Export Plug-In . SVG Version: 6.00 Build 0)  -->
<!DOCTYPE svg PUBLIC "-//W3C//DTD SVG 1.1//EN" "http://www.w3.org/Graphics/SVG/1.1/DTD/svg11.dtd">
<svg version="1.1" id="Capa_1" xmlns="http://www.w3.org/2000/svg" xmlns:xlink="http://www.w3.org/1999/xlink" x="0px" y="0px"
	 width="80px" height="80px" viewBox="0 0 80 80" style="enable-background:new 0 0 80 80;" xml:space="preserve">
<g>
	<g>
		<path d="M61.784,18.216c0.771,0.769,2.017,0.769,2.784,0L79.422,3.361c0.77-0.77,0.77-2.017,0-2.784
			c-0.769-0.77-2.019-0.77-2.783,0L61.784,15.431C61.017,16.2,61.017,17.445,61.784,18.216z"/>
		<g>
			<path d="M50.838,27.649c-0.891-0.889-1.805-1.517-2.741-1.881c-0.939-0.365-1.845-0.446-2.712-0.249
				c-0.866,0.198-1.646,0.644-2.336,1.333c-0.491,0.492-0.854,1.038-1.086,1.642c-0.231,0.602-0.321,1.23-0.27,1.885
				s0.266,1.343,0.643,2.066c0.375,0.724,0.906,1.429,1.593,2.113c0.688,0.69,1.399,1.229,2.133,1.612
				c0.73,0.384,1.438,0.601,2.127,0.649c0.684,0.051,1.324-0.039,1.916-0.27c0.596-0.229,1.138-0.589,1.629-1.082
				c0.631-0.629,1.052-1.366,1.264-2.208c0.212-0.843,0.146-1.748-0.199-2.718C52.45,29.577,51.799,28.611,50.838,27.649z"/>
			<path d="M75.826,15.313l-2.785-2.785l-3.495,3.497c0.485,2.309-0.166,4.808-1.958,6.6c-2.819,2.819-7.393,2.819-10.213,0
				c-2.819-2.819-2.819-7.393,0-10.212c1.792-1.792,4.292-2.443,6.601-1.958l3.498-3.497l-2.785-2.785
				c-1.922-1.922-21.752-1.922-23.674,0L1.443,43.744c-1.923,1.923-1.923,5.041,0,6.963l27.851,27.852
				c1.922,1.922,5.04,1.922,6.963,0l39.571-39.571C77.749,37.064,77.749,17.236,75.826,15.313z M32.177,57.947
				c-0.398,1.06-1.097,2.091-2.097,3.091c-1.198,1.197-2.415,1.961-3.646,2.286c-0.878,0.227-1.762,0.239-2.651,0.041
				c-0.889-0.198-1.591-0.556-2.104-1.068c-0.298-0.298-0.451-0.656-0.456-1.078c-0.006-0.418,0.151-0.789,0.472-1.109
				c0.259-0.26,0.562-0.396,0.908-0.409c0.345-0.017,0.745,0.077,1.197,0.276c0.542,0.231,1.031,0.388,1.47,0.469
				c0.44,0.08,0.907,0.041,1.401-0.115c0.495-0.159,1.007-0.503,1.537-1.031c0.729-0.729,1.152-1.491,1.269-2.286
				c0.116-0.795-0.081-1.447-0.589-1.957c-0.403-0.402-0.853-0.604-1.351-0.613c-0.498-0.004-1.007,0.121-1.53,0.377
				c-0.521,0.26-1.183,0.64-1.984,1.142c-1.077,0.668-2.047,1.16-2.908,1.477c-0.863,0.313-1.702,0.408-2.519,0.281
				c-0.818-0.127-1.579-0.541-2.28-1.242c-0.668-0.668-1.08-1.444-1.234-2.33c-0.154-0.883-0.027-1.811,0.385-2.778
				c0.412-0.972,1.083-1.92,2.017-2.854c0.746-0.746,1.483-1.299,2.213-1.658c0.729-0.356,1.426-0.562,2.092-0.616
				c0.666-0.052,1.25,0.01,1.752,0.181c0.502,0.172,0.915,0.416,1.235,0.737c0.292,0.291,0.453,0.659,0.48,1.103
				c0.027,0.44-0.113,0.815-0.422,1.128c-0.282,0.28-0.566,0.424-0.853,0.43c-0.287,0.007-0.678-0.064-1.169-0.215
				c-0.68-0.237-1.303-0.33-1.869-0.278c-0.566,0.054-1.192,0.422-1.877,1.104c-0.636,0.637-1.009,1.288-1.118,1.956
				c-0.111,0.669,0.029,1.199,0.421,1.591c0.244,0.244,0.52,0.387,0.83,0.433c0.31,0.045,0.644,0.015,1.002-0.093
				c0.358-0.104,0.693-0.239,1.002-0.405c0.31-0.164,0.807-0.451,1.492-0.86c0.846-0.524,1.641-0.969,2.389-1.33
				c0.75-0.362,1.456-0.601,2.122-0.712c0.665-0.113,1.318-0.068,1.959,0.137c0.642,0.203,1.268,0.613,1.881,1.228
				c0.735,0.733,1.206,1.584,1.414,2.549C32.669,55.875,32.573,56.885,32.177,57.947z M44.979,45.725l-6.687,6.688
				c-0.537,0.535-1.041,0.802-1.512,0.799c-0.473-0.002-0.975-0.271-1.505-0.799l-9.131-9.131c-0.354-0.355-0.59-0.695-0.709-1.023
				c-0.118-0.328-0.118-0.656,0.004-0.982c0.122-0.325,0.356-0.661,0.705-1.01l6.497-6.497c0.392-0.392,0.771-0.597,1.135-0.613
				c0.364-0.018,0.688,0.115,0.97,0.397c0.287,0.287,0.421,0.613,0.406,0.979c-0.017,0.364-0.221,0.742-0.614,1.135l-5.544,5.544
				l2.983,2.981l5.104-5.104c0.376-0.375,0.741-0.571,1.094-0.588c0.354-0.018,0.669,0.113,0.945,0.389
				c0.276,0.276,0.41,0.592,0.402,0.949c-0.008,0.355-0.203,0.726-0.584,1.105l-5.105,5.104l3.456,3.455l5.733-5.734
				c0.387-0.386,0.769-0.588,1.145-0.604c0.375-0.018,0.713,0.124,1.013,0.423c0.286,0.287,0.422,0.618,0.405,0.993
				C45.566,44.955,45.366,45.337,44.979,45.725z M55.8,34.421c-0.439,1.038-1.139,2.035-2.095,2.991
				c-0.95,0.95-1.955,1.646-3.014,2.092s-2.116,0.64-3.178,0.584c-1.062-0.055-2.111-0.346-3.152-0.873
				c-1.041-0.528-2.02-1.248-2.93-2.16c-0.935-0.934-1.657-1.924-2.167-2.97c-0.512-1.046-0.786-2.099-0.825-3.153
				s0.162-2.092,0.601-3.112c0.44-1.019,1.123-1.991,2.05-2.92c1.261-1.259,2.599-2.085,4.013-2.478
				c1.414-0.394,2.823-0.35,4.229,0.129c1.405,0.478,2.746,1.352,4.018,2.623c0.938,0.938,1.666,1.919,2.178,2.942
				c0.515,1.021,0.8,2.067,0.854,3.141C56.438,32.328,56.242,33.383,55.8,34.421z"/>
		</g>
	</g>
</g>
<g>
</g>
<g>
</g>
<g>
</g>
<g>
</g>
<g>
</g>
<g>
</g>
<g>
</g>
<g>
</g>
<g>
</g>
<g>
</g>
<g>
</g>
<g>
</g>
<g>
</g>
<g>
</g>
<g>
</g>
</svg>
