<?xml version="1.0" encoding="iso-8859-1"?>
<!-- Generator: Adobe Illustrator 16.0.0, SVG Export Plug-In . SVG Version: 6.00 Build 0)  -->
<!DOCTYPE svg PUBLIC "-//W3C//DTD SVG 1.1//EN" "http://www.w3.org/Graphics/SVG/1.1/DTD/svg11.dtd">
<svg version="1.1" id="Capa_1" xmlns="http://www.w3.org/2000/svg" xmlns:xlink="http://www.w3.org/1999/xlink" x="0px" y="0px"
	 width="43.75px" height="43.75px" viewBox="0 0 43.75 43.75" style="enable-background:new 0 0 43.75 43.75;" xml:space="preserve"
	>
<g>
	<path d="M37.908,27.018l-7.374-7.375c-0.569-0.569-1.427-0.74-2.171-0.432c-0.744,0.309-1.229,1.035-1.229,1.84v3.557
		c-3.188,0.106-6.158,1.104-8.687,2.752v-15.99h3.552c0.806,0,1.532-0.492,1.842-1.236c0.308-0.744,0.138-1.604-0.433-2.174
		l-7.374-7.375C15.66,0.21,15.154,0,14.625,0c-0.528,0-1.035,0.21-1.409,0.583L5.842,7.957c-0.57,0.57-0.74,1.433-0.432,2.177
		c0.309,0.745,1.035,1.236,1.841,1.236h3.554v30.139v0.608c0,0.902,0.731,1.633,1.633,1.633h4.375c0.902,0,1.633-0.73,1.633-1.633
		v-0.608c0-4.909,3.848-8.938,8.687-9.235v3.527c0,0.805,0.485,1.532,1.229,1.84c0.745,0.309,1.603,0.139,2.171-0.432l7.374-7.374
		C38.687,29.057,38.687,27.794,37.908,27.018z"/>
</g>
<g>
</g>
<g>
</g>
<g>
</g>
<g>
</g>
<g>
</g>
<g>
</g>
<g>
</g>
<g>
</g>
<g>
</g>
<g>
</g>
<g>
</g>
<g>
</g>
<g>
</g>
<g>
</g>
<g>
</g>
</svg>
