<?xml version="1.0" encoding="UTF-8" standalone="no"?>
<!-- Generator: Adobe Illustrator 19.0.0, SVG Export Plug-In . SVG Version: 6.00 Build 0)  -->

<svg
   xmlns:dc="http://purl.org/dc/elements/1.1/"
   xmlns:cc="http://creativecommons.org/ns#"
   xmlns:rdf="http://www.w3.org/1999/02/22-rdf-syntax-ns#"
   xmlns:svg="http://www.w3.org/2000/svg"
   xmlns="http://www.w3.org/2000/svg"
   xmlns:sodipodi="http://sodipodi.sourceforge.net/DTD/sodipodi-0.dtd"
   xmlns:inkscape="http://www.inkscape.org/namespaces/inkscape"
   version="1.1"
   id="Layer_1"
   x="0px"
   y="0px"
   viewBox="0 0 483.5 483.5"
   style="enable-background:new 0 0 483.5 483.5;"
   xml:space="preserve"
   inkscape:version="0.91 r13725"
   sodipodi:docname="v-switch-on.svg"><metadata
     id="metadata39"><rdf:RDF><cc:Work
         rdf:about=""><dc:format>image/svg+xml</dc:format><dc:type
           rdf:resource="http://purl.org/dc/dcmitype/StillImage" /><dc:title></dc:title></cc:Work></rdf:RDF></metadata><defs
     id="defs37" /><sodipodi:namedview
     pagecolor="#ffffff"
     bordercolor="#666666"
     borderopacity="1"
     objecttolerance="10"
     gridtolerance="10"
     guidetolerance="10"
     inkscape:pageopacity="0"
     inkscape:pageshadow="2"
     inkscape:window-width="1619"
     inkscape:window-height="800"
     id="namedview35"
     showgrid="false"
     inkscape:zoom="0.48810755"
     inkscape:cx="241.75"
     inkscape:cy="241.75"
     inkscape:window-x="0"
     inkscape:window-y="0"
     inkscape:window-maximized="0"
     inkscape:current-layer="Layer_1" /><path
     d="m 113.00193,128.7503 0,227.5 c 0.827,70.304 58.25799,127.24999 128.74999,127.24999 70.49201,10e-6 127.92301,-56.946 128.73101,-127.25 0.019,0 0.019,-227.49999 0.019,-227.49999 C 370.50193,57.757294 312.74493,2.957124e-4 241.75192,2.9995504e-4 170.75893,2.9854083e-4 113.00193,57.757297 113.00193,128.7503 Z m 227.5,225.99999 c 0,54.451 -44.299,98.75001 -98.75,98.75001 -54.451,0 -98.75,-44.29901 -98.75,-98.75 0,-54.451 44.299,-98.75001 98.75,-98.75001 54.451,0 98.75,44.29901 98.75,98.75 z"
     id="path3"
     inkscape:connector-curvature="0" /><g
     id="g5" /><g
     id="g7" /><g
     id="g9" /><g
     id="g11" /><g
     id="g13" /><g
     id="g15" /><g
     id="g17" /><g
     id="g19" /><g
     id="g21" /><g
     id="g23" /><g
     id="g25" /><g
     id="g27" /><g
     id="g29" /><g
     id="g31" /><g
     id="g33" /></svg>