<?xml version="1.0" encoding="utf-8"?>
<!-- Generator: Adobe Illustrator 20.0.0, SVG Export Plug-In . SVG Version: 6.00 Build 0)  -->
<svg version="1.1" id="Capa_1" xmlns="http://www.w3.org/2000/svg" xmlns:xlink="http://www.w3.org/1999/xlink" x="0px" y="0px"
	 viewBox="0 0 508.5 508.5" style="enable-background:new 0 0 508.5 508.5;" xml:space="preserve">
<g>
	<circle cx="70" cy="133.8" r="9"/>
	<circle cx="70" cy="294.4" r="9"/>
	<circle cx="70" cy="374.7" r="9"/>
	<path d="M499.3,167h-15.5V86.7h-459V167H9.3v94.2h15.5v0.1v66.3v14v80.3h459v-80.3v-14v-66.3v-0.1h15.5V167z M38.7,100.7h431V167
		h-1.4h-428h-1.6V100.7z M79,214.1c0,5-4,9-9,9s-9-4-9-9s4-9,9-9S79,209.1,79,214.1z M469.7,407.8h-431v-66.3h431V407.8z
		 M469.7,327.5h-431v-66.3h1.6h428h1.4V327.5z"/>
</g>
</svg>
