<?xml version="1.0" encoding="iso-8859-1"?>
<!-- Generator: Adobe Illustrator 18.0.0, SVG Export Plug-In . SVG Version: 6.00 Build 0)  -->
<!DOCTYPE svg PUBLIC "-//W3C//DTD SVG 1.1//EN" "http://www.w3.org/Graphics/SVG/1.1/DTD/svg11.dtd">
<svg version="1.1" id="Capa_1" xmlns="http://www.w3.org/2000/svg" xmlns:xlink="http://www.w3.org/1999/xlink" x="0px" y="0px"
	 viewBox="0 0 64.167 64.167" style="enable-background:new 0 0 64.167 64.167;" xml:space="preserve">
<path d="M57.506,20.179L40.339,0.346C40.149,0.126,39.873,0,39.583,0H15.417c-4.963,0-9,4.038-9,9v46.167c0,4.962,4.037,9,9,9H48.75
	c4.963,0,9-4.038,9-9V20.833C57.75,20.593,57.663,20.36,57.506,20.179z M40.583,3.683l13.979,16.15h-6.979c-3.859,0-7-3.14-7-7
	V3.683z M48.75,62.167H15.417c-3.859,0-7-3.14-7-7V9c0-3.86,3.141-7,7-7h23.166v10.833c0,4.962,4.037,9,9,9h8.167v33.333
	C55.75,59.026,52.609,62.167,48.75,62.167z"/>
<g>
</g>
<g>
</g>
<g>
</g>
<g>
</g>
<g>
</g>
<g>
</g>
<g>
</g>
<g>
</g>
<g>
</g>
<g>
</g>
<g>
</g>
<g>
</g>
<g>
</g>
<g>
</g>
<g>
</g>
</svg>
