<?xml version="1.0" encoding="iso-8859-1"?>
<!-- Generator: Adobe Illustrator 16.0.0, SVG Export Plug-In . SVG Version: 6.00 Build 0)  -->
<!DOCTYPE svg PUBLIC "-//W3C//DTD SVG 1.1//EN" "http://www.w3.org/Graphics/SVG/1.1/DTD/svg11.dtd">
<svg version="1.1" id="Capa_1" xmlns="http://www.w3.org/2000/svg" xmlns:xlink="http://www.w3.org/1999/xlink" x="0px" y="0px"
	 width="950px" height="950px" viewBox="0 0 950 950" style="enable-background:new 0 0 950 950;" xml:space="preserve">
<g>
	<g>
		<path d="M178.176,616.415v98.599H119.52c-12.446,0-18.411,15.284-9.255,23.715l219.737,202.32
			c6.481,5.968,14.709,8.951,22.936,8.951c8.228,0,16.455-2.984,22.938-8.951l219.737-202.32c9.155-8.431,3.19-23.715-9.255-23.715
			h-58.655v-98.599H178.176z"/>
		<path d="M772.908,625.133v-8.718v-12.633v-12.634h89.743c22.102,0,40.02-17.918,40.02-40.02V101.367
			c0-22.104-17.918-40.021-40.02-40.021h-127.87c0.001,0.088,0.013,0.172,0.013,0.261v39.169c0,7.751-6.283,14.033-14.033,14.033
			h-41.868c-7.751,0-14.032-6.283-14.032-14.033V61.608c0-0.088,0.012-0.173,0.013-0.261H405.615L363.9,13.237
			C356.61,4.829,346.029,0,334.901,0H87.349c-22.102,0-40.02,17.918-40.02,40.02v511.109c0,22.102,17.918,40.021,40.02,40.021
			h65.562h12.633h12.633h349.527h12.633h12.633h12.746v12.633v12.633v8.718c0,22.417,18.237,40.655,40.655,40.655h125.884
			C754.671,665.787,772.908,647.55,772.908,625.133z M590.982,625.133v-8.718v-12.633v-12.634V447.394
			c0-6.79,4.402-12.542,10.506-14.584c1.536-0.514,3.174-0.804,4.883-0.804h61.305h64.579c8.499,0,15.389,6.89,15.389,15.389V591.15
			v12.633v12.633v8.718c0,8.499-6.89,15.39-15.389,15.39H606.37C597.872,640.521,590.982,633.632,590.982,625.133z M735.541,361.072
			c0,7.75-6.283,14.033-14.033,14.033H679.64c-7.751,0-14.032-6.282-14.032-14.033v-39.169c0-7.751,6.282-14.033,14.032-14.033
			h41.868c7.75,0,14.033,6.283,14.033,14.033V361.072z M668.245,295.642c0,7.751-6.283,14.033-14.034,14.033h-41.868
			c-7.75,0-14.033-6.283-14.033-14.033v-39.169c0-7.75,6.283-14.033,14.033-14.033h41.868c7.751,0,14.034,6.283,14.034,14.033
			V295.642z M599.377,386.265c0-7.75,6.283-14.032,14.034-14.032h41.868c7.751,0,14.033,6.282,14.033,14.032v20.475H606.37
			c-2.385,0-4.72,0.218-6.993,0.613V386.265z M679.64,178.816h41.868c7.75,0,14.033,6.283,14.033,14.033v39.169
			c0,7.751-6.283,14.033-14.033,14.033H679.64c-7.751,0-14.032-6.283-14.032-14.033v-39.169
			C665.607,185.099,671.889,178.816,679.64,178.816z M595.672,126.588c0-7.75,6.283-14.033,14.034-14.033h41.868
			c7.75,0,14.033,6.283,14.033,14.033v39.169c0,7.75-6.283,14.033-14.033,14.033h-41.868c-7.751,0-14.034-6.283-14.034-14.033
			V126.588z"/>
		<path d="M628.129,613.925h82.365c5.915,0,10.787-4.425,11.512-10.144c0.062-0.483,0.104-0.973,0.104-1.473v-11.16v-37.951
			c0-6.415-5.2-11.615-11.615-11.615H628.13c-6.415,0-11.615,5.2-11.615,11.615v37.951v11.16c0,0.5,0.042,0.988,0.104,1.473
			C617.342,609.5,622.214,613.925,628.129,613.925z"/>
	</g>
</g>
<g>
</g>
<g>
</g>
<g>
</g>
<g>
</g>
<g>
</g>
<g>
</g>
<g>
</g>
<g>
</g>
<g>
</g>
<g>
</g>
<g>
</g>
<g>
</g>
<g>
</g>
<g>
</g>
<g>
</g>
</svg>
